<svg xmlns="http://www.w3.org/2000/svg" width="62" height="28" viewBox="0 0 62 28" fill="none">
    <path
        d="M20.8859 5.53125C21.5717 5.53125 22.1276 6.08713 22.1276 6.77285V17.3101C22.1276 17.9958 21.5717 18.5517 20.8859 18.5517H7.2432L3.24001 22.2469C2.44467 22.9811 1.15625 22.4169 1.15625 21.3345V13.6411C1.15625 13.1788 1.531 12.8041 1.99327 12.8041H7.24743C7.58381 12.8041 7.85662 12.5314 7.85662 12.1949C7.85662 11.8585 7.58381 11.5857 7.24743 11.5857H1.99327C1.531 11.5857 1.15625 11.2109 1.15625 10.7487V6.77285C1.15625 6.08713 1.71213 5.53125 2.39785 5.53125H20.8859Z"
        fill="#FFB34B" />
    <g filter="url(#filter0_i_9482_1130)">
        <path
            d="M18.342 11.9032L17.323 11.612C16.8642 11.4826 16.4462 11.2376 16.1091 10.9005C15.7718 10.5633 15.5268 10.1453 15.3975 9.68643L15.1063 8.6674C15.0917 8.63175 15.0668 8.60125 15.0348 8.57981C15.0027 8.55834 14.965 8.54688 14.9265 8.54688C14.888 8.54688 14.8503 8.55834 14.8183 8.57981C14.7863 8.60125 14.7614 8.63175 14.7466 8.6674L14.4555 9.68643C14.3261 10.1453 14.0812 10.5633 13.744 10.9005C13.4069 11.2376 12.9888 11.4826 12.5299 11.612L11.5109 11.9032C11.4718 11.9143 11.4373 11.9379 11.4128 11.9703C11.3884 12.0027 11.375 12.0423 11.375 12.083C11.375 12.1237 11.3884 12.1632 11.4128 12.1956C11.4373 12.2282 11.4718 12.2517 11.5109 12.2627L12.5299 12.554C12.9888 12.6834 13.4069 12.9283 13.744 13.2655C14.0812 13.6026 14.3261 14.0206 14.4555 14.4796L14.7466 15.4986C14.7578 15.5377 14.7813 15.5721 14.8138 15.5967C14.8463 15.6211 14.8858 15.6344 14.9265 15.6344C14.9672 15.6344 15.0068 15.6211 15.0392 15.5967C15.0716 15.5721 15.0952 15.5377 15.1063 15.4986L15.3975 14.4796C15.5268 14.0206 15.7718 13.6026 16.1091 13.2655C16.4462 12.9283 16.8642 12.6834 17.323 12.554L18.342 12.2627C18.3812 12.2517 18.4156 12.2282 18.4402 12.1956C18.4647 12.1632 18.478 12.1237 18.478 12.083C18.478 12.0423 18.4647 12.0027 18.4402 11.9703C18.4156 11.9379 18.3812 11.9143 18.342 11.9032Z"
            fill="white" />
    </g>
    <path
        d="M32.6685 5.5449V7.58309C32.528 7.56551 32.2908 7.5538 31.9569 7.54795C31.6289 7.53624 31.4005 7.60945 31.2717 7.76757C31.1486 7.91986 31.0871 8.0897 31.0871 8.27712V9.55038H32.73V11.3163H31.0871V18.5456H28.5921V11.3163H27.1953V9.55038H28.5657V8.4704C28.5657 7.44545 28.7386 6.7397 29.0841 6.35315C29.4472 5.77917 30.3228 5.49219 31.7109 5.49219C31.869 5.49219 32.0125 5.49804 32.1414 5.50975C32.2702 5.51561 32.4459 5.52733 32.6685 5.5449Z"
        fill="white" />
    <path
        d="M39.7612 17.2673C39.7391 17.2947 39.6841 17.3772 39.5962 17.5146C39.5082 17.6522 39.4038 17.7732 39.2828 17.8776C38.9143 18.2075 38.5569 18.4329 38.2105 18.5539C37.8696 18.6749 37.4681 18.7354 37.0063 18.7354C35.6754 18.7354 34.7792 18.257 34.3173 17.3003C34.0588 16.7723 33.9297 15.9943 33.9297 14.9661V9.54688H36.3382V14.9661C36.3382 15.4774 36.3986 15.8623 36.5195 16.1208C36.734 16.5772 37.1547 16.8053 37.7817 16.8053C38.5844 16.8053 39.1343 16.4809 39.4312 15.8321C39.5852 15.4802 39.6622 15.0155 39.6622 14.4381V9.54688H42.0459V18.5375H39.7612V17.2673Z"
        fill="white" />
    <path
        d="M50.8242 18.5375H43.0625V16.7064L47.6733 11.4604H43.3759V9.54688H50.6674V11.5018L46.1061 16.6074H50.8242V18.5375Z"
        fill="white" />
    <path
        d="M59.6055 18.5375H51.8438V16.7064L56.4546 11.4604H52.1572V9.54688H59.4487V11.5018L54.8875 16.6074H59.6055V18.5375Z"
        fill="white" />
    <defs>
        <filter id="filter0_i_9482_1130" x="11.375" y="8.54688" width="7.10156" height="7.11665"
            filterUnits="userSpaceOnUse" color-interpolation-filters="sRGB">
            <feFlood flood-opacity="0" result="BackgroundImageFix" />
            <feBlend mode="normal" in="SourceGraphic" in2="BackgroundImageFix" result="shape" />
            <feColorMatrix in="SourceAlpha" type="matrix" values="0 0 0 0 0 0 0 0 0 0 0 0 0 0 0 0 0 0 127 0"
                result="hardAlpha" />
            <feOffset dy="0.030716" />
            <feGaussianBlur stdDeviation="0.232506" />
            <feComposite in2="hardAlpha" operator="arithmetic" k2="-1" k3="1" />
            <feColorMatrix type="matrix" values="0 0 0 0 0.513634 0 0 0 0 0.513634 0 0 0 0 0.513634 0 0 0 0.24 0" />
            <feBlend mode="normal" in2="shape" result="effect1_innerShadow_9482_1130" />
        </filter>
    </defs>
</svg>