<svg width="22" height="22" viewBox="0 0 22 22" fill="none" xmlns="http://www.w3.org/2000/svg">
<path d="M17.2313 10.7526L13.9292 7.45054C13.6667 7.188 13.2411 7.188 12.9786 7.45051C12.7161 7.71303 12.7161 8.13864 12.9786 8.40118L15.1331 10.5557L5.63912 10.6762C5.26787 10.6762 4.96689 10.9772 4.96689 11.3485C4.96689 11.5341 5.04212 11.7021 5.16377 11.8238C5.28541 11.9454 5.45346 12.0207 5.63909 12.0207L15.1331 11.9001L12.9786 14.0546C12.716 14.3171 12.716 14.7427 12.9786 15.0053C13.2411 15.2678 13.6667 15.2678 13.9293 15.0053L17.2313 11.7032C17.505 11.4295 17.5404 11.0617 17.2313 10.7526Z" fill="#C4905A"/>
</svg>
