<svg xmlns="http://www.w3.org/2000/svg" width="167" height="18" viewBox="0 0 167 18" fill="none">
  <g clip-path="url(#clip0_1259_797)">
    <path d="M1.83997 5.98238H5.09133L5.88712 2.32175H8.06986L7.27407 5.98238H10.3663L11.1621 2.32175H13.3221L12.5263 5.98238H15.5048V7.96049H12.117L11.3894 11.3483H14.368V13.3264H10.9574L10.1616 17.0552H8.00165L8.79744 13.3264H5.70523L4.90944 17.0552H2.7267L3.52249 13.3264H0.703125V11.3483H3.95449L4.68207 7.96049H1.83997V5.98238ZM6.13723 11.3483H9.2067L9.95702 7.96049H6.86481L6.13723 11.3483ZM31.2431 17.0552L33.7215 5.32301L26.4229 17.0552H24.3084L21.6255 5.41396L19.1472 17.0552H16.5097L19.9202 0.934803H23.217L26.0364 13.1218L33.5623 0.934803H37.3594L33.9261 17.0552H31.2431ZM43.6948 8.00596C43.1643 8.00596 42.6944 8.13481 42.2851 8.39249C41.8758 8.65017 41.5348 8.99123 41.2619 9.41565C40.9891 9.82491 40.7769 10.2872 40.6253 10.8026C40.4889 11.3028 40.4207 11.803 40.4207 12.3032C40.4207 13.1218 40.6177 13.7811 41.0118 14.2813C41.4211 14.7664 42.0123 15.0089 42.7853 15.0089C43.2249 15.0089 43.6417 14.9028 44.0358 14.6906C44.4299 14.4784 44.771 14.1752 45.059 13.7811C45.3622 13.387 45.5971 12.9247 45.7638 12.3942C45.9306 11.8485 46.0139 11.2422 46.0139 10.5752C46.0139 9.81733 45.8169 9.20344 45.4228 8.73354C45.0438 8.24849 44.4678 8.00596 43.6948 8.00596ZM49.6746 5.98238L47.8784 14.4178C47.8026 14.7664 47.7419 15.115 47.6965 15.4636C47.6662 15.7971 47.651 16.1458 47.651 16.5095C47.651 16.5702 47.651 16.646 47.651 16.7369C47.651 16.8279 47.6586 16.934 47.6737 17.0552H45.2182C45.203 16.9491 45.1954 16.8658 45.1954 16.8051C45.1954 16.7445 45.1954 16.6763 45.1954 16.6005C45.1954 16.4641 45.1954 16.3428 45.1954 16.2367C45.1954 16.1306 45.2106 15.9487 45.2409 15.691C44.9226 16.1003 44.5057 16.4641 43.9904 16.7824C43.4902 17.1007 42.8914 17.2599 42.1942 17.2599C41.4817 17.2599 40.8527 17.1386 40.307 16.8961C39.7613 16.6384 39.299 16.2898 38.9201 15.8502C38.5563 15.4106 38.2758 14.8952 38.0788 14.3041C37.8817 13.7129 37.7832 13.0687 37.7832 12.3714C37.7832 11.4468 37.9272 10.5828 38.2152 9.77944C38.5032 8.96091 38.8973 8.24849 39.3975 7.64217C39.9129 7.03586 40.5192 6.55838 41.2165 6.20975C41.9137 5.86112 42.6716 5.6868 43.4902 5.6868C43.9904 5.6868 44.4224 5.73986 44.7862 5.84596C45.1651 5.93691 45.4834 6.06575 45.7411 6.23249C46.0139 6.38407 46.2337 6.55838 46.4005 6.75544C46.5824 6.93733 46.7188 7.11923 46.8097 7.30112L47.1053 5.98238H49.6746ZM61.1341 14.4178C61.0432 14.8725 60.975 15.2742 60.9295 15.6228C60.8992 15.9563 60.884 16.2519 60.884 16.5095C60.884 16.5399 60.884 16.6232 60.884 16.7596C60.884 16.8809 60.8916 16.9794 60.9068 17.0552H58.4739C58.4588 16.9491 58.4512 16.8506 58.4512 16.7596C58.4512 16.6535 58.4512 16.5626 58.4512 16.4868C58.4512 16.3201 58.4512 16.1761 58.4512 16.0548C58.4663 15.9184 58.4815 15.7971 58.4967 15.691C58.1783 16.1003 57.7615 16.4641 57.2461 16.7824C56.7459 17.1007 56.1472 17.2599 55.4499 17.2599C54.7375 17.2599 54.1084 17.1386 53.5628 16.8961C53.0171 16.6384 52.5548 16.2898 52.1758 15.8502C51.812 15.4106 51.5316 14.8952 51.3346 14.3041C51.1375 13.7129 51.039 13.0687 51.039 12.3714C51.039 11.4468 51.183 10.5828 51.471 9.77944C51.759 8.96091 52.1531 8.24849 52.6533 7.64217C53.1687 7.03586 53.775 6.55838 54.4722 6.20975C55.1695 5.86112 55.9274 5.6868 56.7459 5.6868C57.2158 5.6868 57.6327 5.73986 57.9964 5.84596C58.3602 5.93691 58.6786 6.05817 58.9514 6.20975C59.2242 6.34617 59.444 6.51291 59.6108 6.70996C59.7927 6.89186 59.9367 7.07375 60.0428 7.25565L61.4524 0.59375H64.0672L61.1341 14.4178ZM56.9506 8.00596C56.42 8.00596 55.9501 8.13481 55.5409 8.39249C55.1316 8.65017 54.7906 8.99123 54.5177 9.41565C54.2449 9.82491 54.0327 10.2872 53.8811 10.8026C53.7447 11.3028 53.6764 11.803 53.6764 12.3032C53.6764 13.1218 53.8735 13.7811 54.2676 14.2813C54.6769 14.7664 55.268 15.0089 56.041 15.0089C56.4807 15.0089 56.8975 14.9028 57.2916 14.6906C57.6857 14.4784 58.0268 14.1752 58.3148 13.7811C58.6179 13.387 58.8529 12.9247 59.0196 12.3942C59.1863 11.8485 59.2697 11.2422 59.2697 10.5752C59.2697 9.81733 59.0727 9.20344 58.6786 8.73354C58.2996 8.24849 57.7236 8.00596 56.9506 8.00596ZM72.4572 10.3024C72.4572 10.2721 72.4572 10.2266 72.4572 10.166C72.4723 10.0902 72.4799 10.022 72.4799 9.96133C72.4799 9.71881 72.442 9.47628 72.3662 9.23375C72.2904 8.97607 72.1616 8.7487 71.9797 8.55165C71.813 8.33944 71.5856 8.1727 71.2976 8.05144C71.0096 7.91502 70.6534 7.8468 70.229 7.8468C69.8197 7.8468 69.4408 7.91502 69.0921 8.05144C68.7586 8.18786 68.4631 8.36975 68.2054 8.59712C67.9477 8.82449 67.7279 9.08975 67.546 9.39291C67.3641 9.68091 67.2277 9.98407 67.1367 10.3024H72.4572ZM66.8412 12.235C66.826 12.3108 66.8184 12.3942 66.8184 12.4851C66.8184 13.2733 67.061 13.9175 67.546 14.4178C68.0311 14.9028 68.6601 15.1453 69.4332 15.1453C70.1607 15.1453 70.7595 14.9862 71.2294 14.6679C71.6993 14.3344 72.0403 13.9554 72.2525 13.531L74.2761 14.6451C74.0942 15.0089 73.8441 15.3575 73.5258 15.691C73.2226 16.0245 72.8664 16.3201 72.4572 16.5778C72.0479 16.8203 71.578 17.0173 71.0475 17.1689C70.5321 17.3205 69.9713 17.3963 69.365 17.3963C68.6828 17.3963 68.0311 17.2826 67.4096 17.0552C66.8033 16.8279 66.2652 16.502 65.7953 16.0775C65.3405 15.638 64.9767 15.1074 64.7039 14.486C64.4311 13.8493 64.2946 13.1293 64.2946 12.326C64.2946 11.2801 64.4614 10.3479 64.7949 9.52933C65.1435 8.69565 65.5982 7.9908 66.1591 7.4148C66.7199 6.8388 67.3565 6.39923 68.069 6.09607C68.7965 5.79291 69.5393 5.64133 70.2972 5.64133C71.0551 5.64133 71.7296 5.75501 72.3207 5.98238C72.9119 6.20975 73.4045 6.52807 73.7986 6.93733C74.2079 7.33144 74.5186 7.80891 74.7309 8.36975C74.9431 8.93059 75.0492 9.54449 75.0492 10.2114C75.0492 10.5904 75.0113 10.9618 74.9355 11.3255C74.8748 11.6742 74.8066 11.9773 74.7309 12.235H66.8412ZM76.4381 17.0552L79.8486 0.934803H89.7846L89.2389 3.50407H82.0314L81.0764 8.0287H87.5337L87.0107 10.5525H80.5535L79.1665 17.0552H76.4381ZM94.9871 8.00596C94.5473 8.00596 94.1229 8.10449 93.7136 8.30154C93.3195 8.49859 92.9709 8.77902 92.6677 9.14281C92.3646 9.50659 92.1221 9.94617 91.9402 10.4615C91.7583 10.9618 91.6673 11.5302 91.6673 12.1668C91.6673 13.046 91.8947 13.7432 92.3494 14.2586C92.8193 14.774 93.4332 15.0316 94.1911 15.0316C94.6004 15.0316 95.0023 14.9483 95.3964 14.7815C95.7905 14.5996 96.1467 14.3344 96.465 13.9858C96.7833 13.622 97.0334 13.1824 97.2153 12.667C97.4124 12.1365 97.5109 11.5302 97.5109 10.8481C97.5109 9.96891 97.2835 9.27923 96.8288 8.77902C96.3892 8.2788 95.7753 8.02112 94.9871 8.00596ZM100.171 10.7571C100.171 11.6666 100.02 12.5306 99.7164 13.3491C99.4132 14.1525 98.9888 14.8573 98.4431 15.4636C97.8974 16.0548 97.2456 16.5247 96.4877 16.8733C95.745 17.222 94.934 17.3963 94.0547 17.3963C93.2816 17.3963 92.5844 17.2674 91.9629 17.0098C91.3414 16.7369 90.8109 16.3655 90.3713 15.8956C89.9469 15.4258 89.6134 14.8801 89.3709 14.2586C89.1435 13.6371 89.0299 12.9702 89.0299 12.2578C89.0299 11.2876 89.189 10.4009 89.5073 9.59754C89.8256 8.77902 90.2576 8.08175 90.8033 7.50575C91.3642 6.91459 92.016 6.45986 92.7587 6.14154C93.5166 5.80807 94.32 5.64133 95.169 5.64133C95.9572 5.64133 96.662 5.77775 97.2835 6.05059C97.905 6.30828 98.4279 6.67207 98.8524 7.14196C99.2919 7.5967 99.6178 8.1348 99.83 8.75628C100.057 9.37775 100.171 10.0447 100.171 10.7571ZM109.66 8.66533C109.311 8.58954 109.001 8.55165 108.728 8.55165C108.334 8.55165 107.955 8.61228 107.591 8.73354C107.242 8.83965 106.909 9.02154 106.59 9.27923C106.287 9.53691 106.014 9.87796 105.772 10.3024C105.545 10.7268 105.363 11.2498 105.226 11.8712L104.112 17.0552H101.52L103.453 7.89228C103.574 7.36175 103.642 6.92217 103.657 6.57354C103.688 6.22491 103.703 6.02786 103.703 5.98238H106.249C106.249 6.05817 106.242 6.16428 106.227 6.3007C106.227 6.42196 106.219 6.55838 106.204 6.70996C106.204 6.84638 106.189 6.99038 106.158 7.14196C106.143 7.27838 106.121 7.39965 106.09 7.50575C106.302 7.18744 106.545 6.92217 106.818 6.70996C107.091 6.49775 107.371 6.33102 107.659 6.20975C107.962 6.08849 108.265 6.00512 108.569 5.95965C108.872 5.89901 109.16 5.8687 109.433 5.8687C109.736 5.8687 110.001 5.89144 110.228 5.93691L109.66 8.66533ZM117.55 3.48133L114.662 17.0552H111.934L114.798 3.48133H109.774L110.319 0.934803H122.916L122.37 3.48133H117.55ZM128.045 8.66533C127.696 8.58954 127.385 8.55165 127.112 8.55165C126.718 8.55165 126.339 8.61228 125.976 8.73354C125.627 8.83965 125.293 9.02154 124.975 9.27923C124.672 9.53691 124.399 9.87796 124.157 10.3024C123.929 10.7268 123.747 11.2498 123.611 11.8712L122.497 17.0552H119.905L121.837 7.89228C121.959 7.36175 122.027 6.92217 122.042 6.57354C122.072 6.22491 122.088 6.02786 122.088 5.98238H124.634C124.634 6.05817 124.626 6.16428 124.611 6.3007C124.611 6.42196 124.604 6.55838 124.589 6.70996C124.589 6.84638 124.573 6.99038 124.543 7.14196C124.528 7.27838 124.505 7.39965 124.475 7.50575C124.687 7.18744 124.93 6.92217 125.202 6.70996C125.475 6.49775 125.756 6.33102 126.044 6.20975C126.347 6.08849 126.65 6.00512 126.953 5.95965C127.256 5.89901 127.544 5.8687 127.817 5.8687C128.12 5.8687 128.386 5.89144 128.613 5.93691L128.045 8.66533ZM134.708 8.00596C134.178 8.00596 133.708 8.13481 133.299 8.39249C132.889 8.65017 132.548 8.99123 132.276 9.41565C132.003 9.82491 131.79 10.2872 131.639 10.8026C131.502 11.3028 131.434 11.803 131.434 12.3032C131.434 13.1218 131.631 13.7811 132.025 14.2813C132.435 14.7664 133.026 15.0089 133.799 15.0089C134.238 15.0089 134.655 14.9028 135.049 14.6906C135.444 14.4784 135.785 14.1752 136.073 13.7811C136.376 13.387 136.611 12.9247 136.777 12.3942C136.944 11.8485 137.027 11.2422 137.027 10.5752C137.027 9.81733 136.83 9.20344 136.436 8.73354C136.057 8.24849 135.481 8.00596 134.708 8.00596ZM140.688 5.98238L138.892 14.4178C138.816 14.7664 138.756 15.115 138.71 15.4636C138.68 15.7971 138.665 16.1458 138.665 16.5095C138.665 16.5702 138.665 16.646 138.665 16.7369C138.665 16.8279 138.672 16.934 138.687 17.0552H136.232C136.217 16.9491 136.209 16.8658 136.209 16.8051C136.209 16.7445 136.209 16.6763 136.209 16.6005C136.209 16.4641 136.209 16.3428 136.209 16.2367C136.209 16.1306 136.224 15.9487 136.254 15.691C135.936 16.1003 135.519 16.4641 135.004 16.7824C134.504 17.1007 133.905 17.2599 133.208 17.2599C132.495 17.2599 131.866 17.1386 131.321 16.8961C130.775 16.6384 130.313 16.2898 129.934 15.8502C129.57 15.4106 129.289 14.8952 129.092 14.3041C128.895 13.7129 128.797 13.0687 128.797 12.3714C128.797 11.4468 128.941 10.5828 129.229 9.77944C129.517 8.96091 129.911 8.24849 130.411 7.64217C130.926 7.03586 131.533 6.55838 132.23 6.20975C132.927 5.86112 133.685 5.6868 134.504 5.6868C135.004 5.6868 135.436 5.73986 135.8 5.84596C136.179 5.93691 136.497 6.06575 136.755 6.23249C137.028 6.38407 137.247 6.55838 137.414 6.75544C137.596 6.93733 137.732 7.11923 137.823 7.30112L138.119 5.98238H140.688ZM152.148 14.4178C152.057 14.8725 151.989 15.2742 151.944 15.6228C151.913 15.9563 151.898 16.2519 151.898 16.5095C151.898 16.5399 151.898 16.6232 151.898 16.7596C151.898 16.8809 151.906 16.9794 151.921 17.0552H149.488C149.473 16.9491 149.465 16.8506 149.465 16.7596C149.465 16.6535 149.465 16.5626 149.465 16.4868C149.465 16.3201 149.465 16.1761 149.465 16.0548C149.481 15.9184 149.496 15.7971 149.511 15.691C149.193 16.1003 148.776 16.4641 148.26 16.7824C147.76 17.1007 147.161 17.2599 146.464 17.2599C145.752 17.2599 145.123 17.1386 144.577 16.8961C144.031 16.6384 143.569 16.2898 143.19 15.8502C142.826 15.4106 142.546 14.8952 142.349 14.3041C142.152 13.7129 142.053 13.0687 142.053 12.3714C142.053 11.4468 142.197 10.5828 142.485 9.77944C142.773 8.96091 143.167 8.24849 143.668 7.64217C144.183 7.03586 144.789 6.55838 145.487 6.20975C146.184 5.86112 146.942 5.6868 147.76 5.6868C148.23 5.6868 148.647 5.73986 149.011 5.84596C149.375 5.93691 149.693 6.05817 149.966 6.20975C150.239 6.34617 150.458 6.51291 150.625 6.70996C150.807 6.89186 150.951 7.07375 151.057 7.25565L152.467 0.59375H155.081L152.148 14.4178ZM147.965 8.00596C147.434 8.00596 146.964 8.13481 146.555 8.39249C146.146 8.65017 145.805 8.99123 145.532 9.41565C145.259 9.82491 145.047 10.2872 144.895 10.8026C144.759 11.3028 144.691 11.803 144.691 12.3032C144.691 13.1218 144.888 13.7811 145.282 14.2813C145.691 14.7664 146.282 15.0089 147.055 15.0089C147.495 15.0089 147.912 14.9028 148.306 14.6906C148.7 14.4784 149.041 14.1752 149.329 13.7811C149.632 13.387 149.867 12.9247 150.034 12.3942C150.201 11.8485 150.284 11.2422 150.284 10.5752C150.284 9.81733 150.087 9.20344 149.693 8.73354C149.314 8.24849 148.738 8.00596 147.965 8.00596ZM163.471 10.3024C163.471 10.2721 163.471 10.2266 163.471 10.166C163.487 10.0902 163.494 10.022 163.494 9.96133C163.494 9.71881 163.456 9.47628 163.38 9.23375C163.305 8.97607 163.176 8.7487 162.994 8.55165C162.827 8.33944 162.6 8.1727 162.312 8.05144C162.024 7.91502 161.668 7.8468 161.243 7.8468C160.834 7.8468 160.455 7.91502 160.106 8.05144C159.773 8.18786 159.477 8.36975 159.22 8.59712C158.962 8.82449 158.742 9.08975 158.56 9.39291C158.378 9.68091 158.242 9.98407 158.151 10.3024H163.471ZM157.855 12.235C157.84 12.3108 157.833 12.3942 157.833 12.4851C157.833 13.2733 158.075 13.9175 158.56 14.4178C159.045 14.9028 159.674 15.1453 160.447 15.1453C161.175 15.1453 161.774 14.9862 162.244 14.6679C162.714 14.3344 163.055 13.9554 163.267 13.531L165.29 14.6451C165.108 15.0089 164.858 15.3575 164.54 15.691C164.237 16.0245 163.881 16.3201 163.471 16.5778C163.062 16.8203 162.592 17.0173 162.062 17.1689C161.546 17.3205 160.986 17.3963 160.379 17.3963C159.697 17.3963 159.045 17.2826 158.424 17.0552C157.818 16.8279 157.279 16.502 156.809 16.0775C156.355 15.638 155.991 15.1074 155.718 14.486C155.445 13.8493 155.309 13.1293 155.309 12.326C155.309 11.2801 155.476 10.3479 155.809 9.52933C156.158 8.69565 156.612 7.9908 157.173 7.4148C157.734 6.8388 158.371 6.39923 159.083 6.09607C159.811 5.79291 160.553 5.64133 161.311 5.64133C162.069 5.64133 162.744 5.75501 163.335 5.98238C163.926 6.20975 164.419 6.52807 164.813 6.93733C165.222 7.33144 165.533 7.80891 165.745 8.36975C165.957 8.93059 166.063 9.54449 166.063 10.2114C166.063 10.5904 166.025 10.9618 165.95 11.3255C165.889 11.6742 165.821 11.9773 165.745 12.235H157.855Z" fill="#EF9309"/>
  </g>
  <defs>
    <clipPath id="clip0_1259_797">
      <rect width="166.737" height="18" fill="white"/>
    </clipPath>
  </defs>
</svg>