<svg xmlns="http://www.w3.org/2000/svg" width="24" height="24" viewBox="0 0 24 24" fill="none">
  <rect x="4.18023" y="2.53961" width="15.6385" height="18.9252" rx="1.74284" stroke="#A2A2A2" stroke-width="0.641711"/>
  <mask id="path-2-inside-1_128099_599" fill="white">
    <path d="M15.8244 10.916C16.0386 10.9817 16.1606 11.2095 16.0765 11.4172C15.8153 12.0622 15.4124 12.6422 14.8958 13.1134C14.2789 13.676 13.5224 14.0627 12.7051 14.2333C11.8879 14.4039 11.0398 14.352 10.2494 14.0832C9.45905 13.8144 8.75525 13.3385 8.21146 12.705C7.66767 12.0715 7.30381 11.3037 7.15783 10.4817C7.01184 9.65975 7.08908 8.81364 7.38148 8.03166C7.67389 7.24968 8.17075 6.56049 8.82025 6.03595C9.36425 5.5966 9.99865 5.28625 10.6757 5.12578C10.8938 5.0741 11.1005 5.2292 11.133 5.4509L11.7146 9.41217C11.7373 9.56712 11.8472 9.69514 11.9969 9.7411L15.8244 10.916Z"/>
  </mask>
  <path d="M15.8244 10.916C16.0386 10.9817 16.1606 11.2095 16.0765 11.4172C15.8153 12.0622 15.4124 12.6422 14.8958 13.1134C14.2789 13.676 13.5224 14.0627 12.7051 14.2333C11.8879 14.4039 11.0398 14.352 10.2494 14.0832C9.45905 13.8144 8.75525 13.3385 8.21146 12.705C7.66767 12.0715 7.30381 11.3037 7.15783 10.4817C7.01184 9.65975 7.08908 8.81364 7.38148 8.03166C7.67389 7.24968 8.17075 6.56049 8.82025 6.03595C9.36425 5.5966 9.99865 5.28625 10.6757 5.12578C10.8938 5.0741 11.1005 5.2292 11.133 5.4509L11.7146 9.41217C11.7373 9.56712 11.8472 9.69514 11.9969 9.7411L15.8244 10.916Z" stroke="#A2A2A2" stroke-width="1.57789" mask="url(#path-2-inside-1_128099_599)"/>
  <mask id="path-3-inside-2_128099_599" fill="white">
    <path d="M12.0089 5.25255C11.9958 5.16041 12.0598 5.07467 12.1524 5.06555C12.7518 5.0065 13.3576 5.08789 13.9213 5.30425C14.5376 5.54078 15.0832 5.93077 15.5065 6.43725C15.9299 6.94374 16.2168 7.54994 16.3402 8.19839C16.4531 8.79159 16.4257 9.40217 16.2612 9.98157C16.2358 10.0711 16.1401 10.1189 16.0517 10.0896L12.6315 8.95587C12.5708 8.93575 12.5267 8.88301 12.5177 8.8197L12.0089 5.25255Z"/>
  </mask>
  <path d="M12.0089 5.25255C11.9958 5.16041 12.0598 5.07467 12.1524 5.06555C12.7518 5.0065 13.3576 5.08789 13.9213 5.30425C14.5376 5.54078 15.0832 5.93077 15.5065 6.43725C15.9299 6.94374 16.2168 7.54994 16.3402 8.19839C16.4531 8.79159 16.4257 9.40217 16.2612 9.98157C16.2358 10.0711 16.1401 10.1189 16.0517 10.0896L12.6315 8.95587C12.5708 8.93575 12.5267 8.88301 12.5177 8.8197L12.0089 5.25255Z" fill="#A2A2A2" stroke="#A2A2A2" stroke-width="1.58211" mask="url(#path-3-inside-2_128099_599)"/>
  <rect x="6.5" y="16.2461" width="10.7389" height="0.878981" rx="0.43949" fill="#A2A2A2"/>
  <rect x="6.5" y="18.2695" width="6.2293" height="0.878981" rx="0.43949" fill="#A2A2A2"/>
</svg>