<svg xmlns="http://www.w3.org/2000/svg" width="18" height="18" viewBox="0 0 18 18" fill="none">
  <g clip-path="url(#clip0_1259_6037)">
    <mask id="mask0_1259_6037" style="mask-type:luminance" maskUnits="userSpaceOnUse" x="0" y="0" width="18" height="18">
      <path d="M18 0H0V18H18V0Z" fill="white"/>
    </mask>
    <g mask="url(#mask0_1259_6037)">
      <path d="M15 0H3C1.34314 0 0 1.34314 0 3V15C0 16.6568 1.34314 18 3 18H15C16.6568 18 18 16.6568 18 15V3C18 1.34314 16.6568 0 15 0Z" fill="#E15858"/>
      <path d="M12.0704 7.0205L10.5824 7.4765C10.4984 7.0085 10.1144 6.2765 9.03437 6.2765C8.23037 6.2765 7.70237 6.7925 7.70237 7.3565C7.70237 7.82448 8.00237 8.19649 8.62637 8.31648L9.81437 8.54448C11.3624 8.84448 12.1904 9.85249 12.1904 11.0525C12.1904 12.3605 11.0984 13.6805 9.11837 13.6805C6.86238 13.6805 5.86638 12.2285 5.73438 11.0165L7.27038 10.6085C7.34238 11.4485 7.93037 12.2045 9.13037 12.2045C10.0184 12.2045 10.5104 11.7605 10.5104 11.1605C10.5104 10.6685 10.1384 10.2845 9.47837 10.1525L8.29037 9.91248C6.93438 9.63648 6.05838 8.76049 6.05838 7.4765C6.05838 5.9645 7.41438 4.8125 9.02237 4.8125C11.0864 4.8125 11.8784 6.0605 12.0704 7.0205Z" fill="white"/>
    </g>
  </g>
  <defs>
    <clipPath id="clip0_1259_6037">
      <rect width="18" height="18" fill="white"/>
    </clipPath>
  </defs>
</svg>