<svg width="24" height="24" viewBox="0 0 24 24" fill="none" xmlns="http://www.w3.org/2000/svg">
<path d="M8.29004 1.03711L19.8145 1.03711C20.8416 1.03725 21.6738 1.87026 21.6738 2.89746L21.6738 14.8789C21.6736 17.7918 19.3124 20.1533 16.3994 20.1533L8.29004 20.1533C7.26275 20.1533 6.42969 19.3203 6.42969 18.293L6.42969 2.89746L6.43945 2.70703C6.5347 1.76907 7.32695 1.03711 8.29004 1.03711Z" fill="#2D323E" stroke="#A2A2A2"/>
<path d="M9.42969 13.25L19.318 13.25" stroke="#A2A2A2" stroke-width="0.6" stroke-linecap="round"/>
<path d="M11.0742 14.9395L17.6664 14.9395" stroke="#A2A2A2" stroke-width="0.6" stroke-linecap="round"/>
<path d="M11.8535 10.6855V5.0043C11.8535 4.82633 11.9639 4.66703 12.1305 4.60455L15.546 3.32374C15.8251 3.21907 16.1229 3.4254 16.1229 3.72349V10.6855C16.1229 10.9213 15.9317 11.1125 15.6959 11.1125H12.2805C12.0447 11.1125 11.8535 10.9213 11.8535 10.6855Z" stroke="#A2A2A2" stroke-width="0.53367"/>
<path d="M13.3398 5.74414H14.7853" stroke="#A2A2A2" stroke-width="0.640404" stroke-linecap="round"/>
<path d="M13.3398 7.03125H14.7853" stroke="#A2A2A2" stroke-width="0.640404" stroke-linecap="round"/>
<path d="M13.3398 8.3125H14.7853" stroke="#A2A2A2" stroke-width="0.640404" stroke-linecap="round"/>
<path d="M6.45801 16.2168C7.32817 15.7126 8.10839 15.421 8.92773 15.6865C9.96149 16.0226 11.7726 16.7887 13.5957 17.1221C14.0686 17.283 14.3441 17.7251 14.2734 18.1689L14.2549 18.2588C14.1843 18.5206 14.047 18.6968 13.8682 18.8018C13.6855 18.9089 13.4248 18.9614 13.0791 18.9082L12.9707 19.5996L12.9727 19.5996L12.9727 19.6006C12.9778 19.6014 12.9831 19.6008 12.9883 19.6016L13.6016 19.7012L13.6016 19.7002C14.3946 19.8279 15.14 19.7193 15.8496 19.3057L20.375 16.6709C21.2311 16.1724 21.8766 15.9528 22.3379 15.8955C22.7993 15.8382 23.0383 15.9452 23.1484 16.0488C23.2553 16.1496 23.3014 16.3035 23.2617 16.4863C23.2215 16.6712 23.0937 16.8682 22.8799 17L22.8721 17.0049L22.8652 17.0098L15.5547 22.0605C14.887 22.4684 14.1619 22.5644 13.3975 22.3594L7.44141 20.7637L7.30176 20.7266L7.17578 20.7988L4.96875 22.0723C4.71214 22.2194 4.38217 22.1309 4.2334 21.874L2.44824 18.7852L2.44922 18.7852C2.30248 18.5298 2.38916 18.2017 2.6416 18.0518L6.43359 16.2295L6.44629 16.2236L6.45801 16.2168Z" fill="#2D323E" stroke="#A2A2A2" stroke-width="0.7"/>
<path d="M2.65234 17.6699C2.77814 17.599 2.94092 17.6453 3.01172 17.7705L3.01563 17.7773L5.55566 22.0576L5.55664 22.0576C5.61896 22.1681 5.59227 22.3075 5.50098 22.3877L5.45801 22.418L4.28711 23.0801C4.16382 23.15 4.00036 23.1067 3.92773 22.9795L3.9248 22.9736L1.38379 18.6914C1.32168 18.5819 1.34823 18.4444 1.43945 18.3643L1.4834 18.333L2.65234 17.6699Z" fill="#2D323E" stroke="#A2A2A2" stroke-width="0.7"/>
</svg>
