<svg width="24" height="24" viewBox="0 0 24 24" fill="none" xmlns="http://www.w3.org/2000/svg">
<path d="M3.5625 0.540039H15.8125L17.1133 1.87695L17.1201 1.88379L20.6006 5.32422V23.2969C20.6006 23.387 20.5276 23.46 20.4375 23.46H3.5625C3.47242 23.46 3.39941 23.387 3.39941 23.2969V0.703125C3.39941 0.613046 3.47242 0.540039 3.5625 0.540039Z" stroke="#A2A2A2" stroke-width="1.08"/>
<path d="M21 5.5H16C15.6117 5.5 15.5 5.38831 15.5 5V0L21 5.5Z" fill="#A2A2A2"/>
<path d="M13.3762 11.9806L11.9809 8.28328C11.9789 8.27794 11.9768 8.27259 11.9746 8.2673C11.8708 8.01469 11.6272 7.85156 11.3542 7.85156C11.3539 7.85156 11.3537 7.85156 11.3534 7.85156C11.0801 7.85184 10.8366 8.01553 10.7332 8.26856C10.7313 8.27292 10.7296 8.27737 10.7279 8.28178L9.31978 11.979C9.2046 12.2814 9.35638 12.6199 9.65878 12.7351C9.7274 12.7613 9.7979 12.7736 9.86723 12.7736C10.1033 12.7736 10.3259 12.6299 10.4149 12.3961L10.6219 11.8527H12.0754L12.2799 12.3944C12.3942 12.6972 12.7322 12.85 13.0349 12.7357C13.3377 12.6214 13.4905 12.2834 13.3762 11.9806ZM11.0682 10.6808L11.3519 9.93563L11.6331 10.6808H11.0682Z" fill="#A2A2A2"/>
<path d="M18.1036 11.8504L16.9282 10.1796L17.9177 8.77499C18.1041 8.51042 18.0407 8.14489 17.7762 7.95856C17.5116 7.77214 17.1461 7.83557 16.9597 8.10013L16.212 9.16152L15.4656 8.10046C15.2794 7.83575 14.9139 7.77214 14.6492 7.95833C14.3846 8.14452 14.3209 8.51005 14.5071 8.77471L15.4951 10.1792L14.3179 11.8501C14.1315 12.1147 14.1949 12.4802 14.4595 12.6665C14.562 12.7388 14.6798 12.7735 14.7964 12.7735C14.9805 12.7735 15.1618 12.6869 15.2759 12.525L16.2112 11.1973L17.145 12.5247C17.2591 12.6868 17.4405 12.7735 17.6248 12.7735C17.7412 12.7735 17.8589 12.7389 17.9614 12.6668C18.2262 12.4805 18.2898 12.1151 18.1036 11.8504Z" fill="#A2A2A2"/>
<path d="M8.44598 7.85156H6.375C6.05142 7.85156 5.78906 8.11388 5.78906 8.4375C5.78906 8.76112 6.05142 9.02344 6.375 9.02344H6.82036V12.1875C6.82036 12.5111 7.08272 12.7734 7.4063 12.7734C7.72988 12.7734 7.99223 12.5111 7.99223 12.1875V9.02344H8.44598C8.76956 9.02344 9.03192 8.76112 9.03192 8.4375C9.03192 8.11388 8.76956 7.85156 8.44598 7.85156Z" fill="#A2A2A2"/>
<path d="M17.625 16.875H6.375C5.98669 16.875 5.67188 16.5602 5.67188 16.1719C5.67188 15.7836 5.98669 15.4688 6.375 15.4688H17.625C18.0133 15.4688 18.3281 15.7836 18.3281 16.1719C18.3281 16.5602 18.0133 16.875 17.625 16.875Z" fill="#A2A2A2"/>
<path d="M17.625 19.6875H6.375C5.98669 19.6875 5.67188 19.3727 5.67188 18.9844C5.67188 18.5961 5.98669 18.2812 6.375 18.2812H17.625C18.0133 18.2812 18.3281 18.5961 18.3281 18.9844C18.3281 19.3727 18.0133 19.6875 17.625 19.6875Z" fill="#A2A2A2"/>
<path d="M11.0625 5.625H6.375C5.98669 5.625 5.67188 5.31019 5.67188 4.92188C5.67188 4.53356 5.98669 4.21875 6.375 4.21875H11.0625C11.4508 4.21875 11.7656 4.53356 11.7656 4.92188C11.7656 5.31019 11.4508 5.625 11.0625 5.625Z" fill="#A2A2A2"/>
</svg>
