<svg width="24" height="24" viewBox="0 0 24 24" fill="none" xmlns="http://www.w3.org/2000/svg">
<rect x="4.27437" y="2.415" width="15.4503" height="18.7369" rx="1.64869" stroke="#A2A2A2" stroke-width="0.83"/>
<path d="M13.5003 8.00032H12.3094L13.9473 4.72402C14.0568 4.50454 13.9913 4.23805 13.7923 4.09506C13.5938 3.95057 13.3193 3.97307 13.1463 4.14706L9.14659 8.14681C9.00359 8.2898 8.9606 8.50478 9.03809 8.69177C9.11609 8.87826 9.29858 9.00025 9.50056 9.00025H10.6915L9.05359 12.2765C8.9441 12.496 9.00959 12.7625 9.20858 12.9055C9.29608 12.969 9.39857 13 9.50006 13C9.62905 13 9.75705 12.9505 9.85404 12.8535L13.8538 8.85376C13.9968 8.71077 14.0398 8.49578 13.9623 8.3088C13.8848 8.12231 13.7023 8.00032 13.5003 8.00032Z" fill="#A2A2A2"/>
<rect x="7" y="15" width="10" height="1" rx="0.5" fill="#A2A2A2" fill-opacity="0.86"/>
<rect x="7" y="17" width="6" height="1" rx="0.5" fill="#A2A2A2" fill-opacity="0.86"/>
</svg>
