<svg xmlns="http://www.w3.org/2000/svg" width="18" height="18" viewBox="0 0 18 18" fill="none">
  <g clip-path="url(#clip0_1259_6018)">
    <mask id="mask0_1259_6018" style="mask-type:luminance" maskUnits="userSpaceOnUse" x="0" y="0" width="18" height="18">
      <path d="M18 0H0V18H18V0Z" fill="white"/>
    </mask>
    <g mask="url(#mask0_1259_6018)">
      <path d="M15 0H3C1.34314 0 0 1.34314 0 3V15C0 16.6568 1.34314 18 3 18H15C16.6568 18 18 16.6568 18 15V3C18 1.34314 16.6568 0 15 0Z" fill="#5CA81D"/>
      <path d="M6.27344 4.99219H9.33344C10.9894 4.99219 11.9254 5.96419 11.9254 7.28419C11.9254 8.16018 11.3974 8.86818 10.6894 9.10818C11.5174 9.31218 12.1894 10.0682 12.1894 11.1242C12.1894 12.5042 11.1574 13.5002 9.56144 13.5002H6.27344V4.99219ZM7.90544 8.50818H9.08145C9.83745 8.50818 10.2934 8.08818 10.2934 7.44019C10.2934 6.79219 9.87344 6.38419 9.06944 6.38419H7.90544V8.50818ZM7.90544 12.1202H9.24945C10.0534 12.1202 10.5334 11.7002 10.5334 11.0162C10.5334 10.3442 10.1014 9.87618 9.27344 9.87618H7.90544V12.1202Z" fill="white"/>
    </g>
  </g>
  <defs>
    <clipPath id="clip0_1259_6018">
      <rect width="18" height="18" fill="white"/>
    </clipPath>
  </defs>
</svg>