<svg xmlns="http://www.w3.org/2000/svg" width="15" height="15" viewBox="0 0 15 15" fill="none">
  <g clip-path="url(#clip0_1333_327)">
    <path d="M13.2422 1.17188H12.5391V0H11.3672V1.17188H3.63281V0H2.46094V1.17188H1.75781C0.788557 1.17188 0 1.96044 0 2.92968V13.2421C0 14.2114 0.788557 15 1.75781 15H13.2422C14.2114 15 15 14.2114 15 13.2421V2.92968C15 1.96044 14.2114 1.17188 13.2422 1.17188ZM13.8281 13.2421C13.8281 13.5652 13.5652 13.8282 13.2422 13.8282H1.75781C1.43473 13.8282 1.17187 13.5652 1.17187 13.2421V5.50782H13.8281V13.2421ZM13.8281 4.33594H1.17187V2.92968C1.17187 2.6066 1.43473 2.34375 1.75781 2.34375H2.46094V3.51562H3.63281V2.34375H11.3672V3.51562H12.5391V2.34375H13.2422C13.5652 2.34375 13.8281 2.6066 13.8281 2.92968V4.33594Z" fill="#AAAAAA"/>
    <path d="M7.72657 7.20703H7.66406C7.24988 7.20703 6.91406 7.54285 6.91406 7.9571V8.01953C6.91406 8.43378 7.24988 8.76953 7.66406 8.76953H7.72657C8.14075 8.76953 8.47657 8.43378 8.47657 8.01953V7.9571C8.47657 7.54285 8.14075 7.20703 7.72657 7.20703Z" fill="#AAAAAA"/>
    <path d="M10.0703 7.20703H10.0078C9.59366 7.20703 9.25781 7.54285 9.25781 7.9571V8.01953C9.25781 8.43378 9.59366 8.76953 10.0078 8.76953H10.0703C10.4845 8.76953 10.8203 8.43378 10.8203 8.01953V7.9571C10.8203 7.54285 10.4845 7.20703 10.0703 7.20703Z" fill="#AAAAAA"/>
    <path d="M5.38281 9.55078H5.32031C4.9061 9.55078 4.57031 9.88658 4.57031 10.3008V10.3633C4.57031 10.7775 4.9061 11.1133 5.32031 11.1133H5.38281C5.79702 11.1133 6.13281 10.7775 6.13281 10.3633V10.3008C6.13281 9.88658 5.79702 9.55078 5.38281 9.55078Z" fill="#AAAAAA"/>
    <path d="M7.72657 9.55078H7.66406C7.24988 9.55078 6.91406 9.88658 6.91406 10.3008V10.3633C6.91406 10.7775 7.24988 11.1133 7.66406 11.1133H7.72657C8.14075 11.1133 8.47657 10.7775 8.47657 10.3633V10.3008C8.47657 9.88658 8.14075 9.55078 7.72657 9.55078Z" fill="#AAAAAA"/>
  </g>
  <defs>
    <clipPath id="clip0_1333_327">
      <rect width="15" height="15" fill="white"/>
    </clipPath>
  </defs>
</svg>