<svg xmlns="http://www.w3.org/2000/svg" width="89" height="32" viewBox="0 0 89 32" fill="none">
  <path d="M15.9888 32C24.819 32 31.9775 24.8366 31.9775 16C31.9775 7.16345 24.819 0 15.9888 0C7.15839 0 0 7.16345 0 16C0 24.8366 7.15839 32 15.9888 32Z" fill="url(#paint0_linear_1259_799)"/>
  <path fill-rule="evenodd" clip-rule="evenodd" d="M23.2436 30.268L10.6595 20.5186L12.4365 16.0059L9.42969 11.9032L10.6595 8.21094H23.3686L31.9779 16.0457C31.9628 22.2519 28.4167 27.6277 23.2436 30.268Z" fill="#17875F"/>
  <path d="M24.5888 10.4532H20.9416V24.8679C20.3469 24.8679 19.761 24.7541 19.1838 24.5265C18.6065 24.3165 18.3179 24.0714 18.3179 23.7913V20.6669C17.0934 21.4371 15.764 21.8221 14.3297 21.8221C12.8953 21.8221 11.7235 21.4545 10.8138 20.7193C9.92177 19.9667 9.47565 18.9952 9.47565 17.8049C9.47565 16.8948 9.79059 16.0808 10.4202 15.363C9.52816 15.0305 8.81975 14.5403 8.29496 13.8926C7.77024 13.2276 7.50781 12.4398 7.50781 11.5296C7.50781 10.6194 7.8752 9.78792 8.60984 9.03521C9.36202 8.28264 10.3853 7.90625 11.6798 7.90625C12.6242 7.90625 13.3501 8.11624 13.8574 8.53637C14.3822 8.95649 14.6446 9.47283 14.6446 10.0855C14.6446 11.3283 13.8399 12.2035 12.2307 12.7112C11.9683 12.5012 11.7758 12.2035 11.6534 11.8185C12.3705 11.3458 12.7292 10.847 12.7292 10.3218C12.7292 10.0242 12.6417 9.78792 12.4668 9.61292C12.2918 9.42028 12.012 9.32406 11.6273 9.32406C11.2423 9.32406 10.8663 9.5342 10.4989 9.95425C10.1316 10.3744 9.948 10.9257 9.948 11.6084C9.948 12.2735 10.1316 12.8337 10.4989 13.2889C10.8837 13.7263 11.3648 14.0328 11.942 14.2078C12.7116 13.8228 13.5775 13.5339 14.5396 13.3413C15.2043 13.9715 15.624 14.6278 15.7991 15.3105C14.7144 15.5206 13.7962 15.8531 13.0441 16.3083C12.3094 16.7459 11.942 17.2536 11.942 17.8312C11.942 18.3913 12.1344 18.8463 12.5194 19.1965C12.9216 19.5466 13.4901 19.7216 14.2248 19.7216C14.9769 19.7216 15.7203 19.5116 16.455 19.0915C17.1897 18.6713 17.8106 18.1199 18.3179 17.4373V10.4532H16.5075C15.8778 9.71788 15.5629 8.939 15.5629 8.11624H23.7754C24.3176 8.8164 24.5888 9.59542 24.5888 10.4532Z" fill="white"/>
  <path d="M44.1171 11.5293C44.8172 11.5293 45.4397 11.6843 45.9842 11.9945C46.529 12.2975 46.9708 12.7204 47.3105 13.2631V7.76562H50.3768V23.3278H47.4377V21.7314C47.0064 22.4151 46.5149 22.9119 45.963 23.2221C45.4113 23.5322 44.7252 23.6872 43.905 23.6872C42.5539 23.6872 41.4151 23.1445 40.4885 22.0591C39.5691 20.9666 39.1094 19.5677 39.1094 17.862C39.1094 15.8955 39.5618 14.3485 40.4674 13.2208C41.3796 12.0931 42.5964 11.5293 44.1171 11.5293ZM44.7747 21.1499C45.6308 21.1499 46.2813 20.8328 46.7271 20.1984C47.1725 19.5641 47.3952 18.743 47.3952 17.7351C47.3952 16.3255 47.0383 15.3176 46.3238 14.7115C45.8854 14.345 45.3761 14.1617 44.7961 14.1617C43.912 14.1617 43.2611 14.4965 42.8437 15.1661C42.4335 15.8286 42.2286 16.6532 42.2286 17.64C42.2286 18.7042 42.4373 19.5571 42.8543 20.1984C43.279 20.8328 43.919 21.1499 44.7747 21.1499ZM59.5114 11.5081C60.2258 11.5081 60.8729 11.6315 61.4532 11.8781C62.0402 12.1249 62.521 12.5019 62.8959 13.0094C63.2141 13.4393 63.4087 13.8833 63.4793 14.3414C63.5503 14.7925 63.5854 15.5326 63.5854 16.5616V23.3278H60.498V16.3184C60.498 15.6982 60.392 15.1978 60.1798 14.8172C59.904 14.2815 59.3807 14.0137 58.6096 14.0137C57.8104 14.0137 57.2021 14.2815 56.7847 14.8172C56.3745 15.3458 56.1693 16.1035 56.1693 17.0902V23.3278H53.1564V7.79734H56.1693V13.3054C56.6081 12.6358 57.1139 12.1707 57.6865 11.9098C58.2667 11.642 58.8748 11.5081 59.5114 11.5081ZM72.7947 17.7245C72.6035 17.8443 72.4088 17.943 72.2113 18.0206C72.0201 18.091 71.755 18.158 71.4154 18.2214L70.7363 18.3483C70.0997 18.4611 69.6435 18.5985 69.3677 18.7606C68.9009 19.0355 68.6676 19.4619 68.6676 20.0398C68.6676 20.5543 68.8088 20.9279 69.0919 21.1605C69.3817 21.386 69.732 21.4988 70.1422 21.4988C70.7928 21.4988 71.3905 21.3085 71.9348 20.9279C72.487 20.5473 72.7734 19.853 72.7947 18.8452V17.7245ZM70.9593 16.3184C71.5177 16.248 71.9178 16.1599 72.158 16.0541C72.5893 15.8709 72.8053 15.5854 72.8053 15.1978C72.8053 14.7256 72.6391 14.4014 72.3065 14.2251C71.981 14.0419 71.4999 13.9503 70.8638 13.9503C70.1493 13.9503 69.6435 14.1265 69.3466 14.4789C69.1344 14.7397 68.9929 15.0921 68.9223 15.5361H66.0046C66.0682 14.5282 66.351 13.7001 66.8533 13.0517C67.6525 12.0368 69.0249 11.5293 70.9699 11.5293C72.2361 11.5293 73.3603 11.7795 74.3438 12.2799C75.3266 12.7803 75.8183 13.7247 75.8183 15.1133V20.3993C75.8183 20.7658 75.8255 21.2098 75.8397 21.7314C75.861 22.1261 75.9214 22.3939 76.0195 22.5348C76.1189 22.6758 76.2675 22.7921 76.4657 22.8838V23.3278H73.1763C73.0846 23.0952 73.0207 22.8767 72.9858 22.6723C72.9503 22.4679 72.9219 22.2353 72.9006 21.9746C72.4834 22.4256 72.0023 22.8097 71.458 23.1269C70.8072 23.5005 70.0717 23.6872 69.2511 23.6872C68.2043 23.6872 67.3377 23.3912 66.6517 22.7992C65.9726 22.2 65.6333 21.3543 65.6333 20.2618C65.6333 18.8452 66.1813 17.8197 67.2776 17.1854C67.879 16.84 68.7631 16.5933 69.9301 16.4453L70.9593 16.3184ZM84.9213 11.5293C86.1166 11.5293 87.093 11.8429 87.8498 12.4702C88.6137 13.0904 88.9953 14.123 88.9953 15.5678V23.3278H85.8977V16.3184C85.8977 15.7123 85.816 15.2472 85.6533 14.9229C85.3562 14.3309 84.7906 14.0349 83.9556 14.0349C82.9302 14.0349 82.2267 14.4683 81.8444 15.3353C81.6468 15.7934 81.5473 16.3784 81.5473 17.0902V23.3278H78.5343V11.8253H81.4521V13.5063C81.8408 12.9142 82.2089 12.4878 82.5557 12.227C83.1782 11.7619 83.967 11.5293 84.9213 11.5293Z" fill="white"/>
  <defs>
    <linearGradient id="paint0_linear_1259_799" x1="29.9789" y1="27.2" x2="18.5492" y2="-0.429287" gradientUnits="userSpaceOnUse">
      <stop stop-color="#138C61"/>
      <stop offset="1" stop-color="#4DBA93" stop-opacity="0.99"/>
    </linearGradient>
  </defs>
</svg>