<svg width="22" height="22" viewBox="0 0 22 22" fill="none" xmlns="http://www.w3.org/2000/svg">
<g filter="url(#filter0_i_19081_5010)">
<path d="M19.825 2.86957C20.481 2.86957 21.0127 3.40128 21.0127 4.05719V14.1363C21.0127 14.7921 20.481 15.3239 19.825 15.3239H6.77543L2.94629 18.8585C2.18553 19.5607 0.953125 19.021 0.953125 17.9858V10.6268C0.953125 10.1846 1.31158 9.82616 1.75375 9.82616H6.77947C7.10123 9.82616 7.36218 9.56533 7.36218 9.24345C7.36218 8.92169 7.10123 8.66074 6.77947 8.66074H1.75375C1.31158 8.66074 0.953125 8.30229 0.953125 7.86017V4.05719C0.953125 3.40128 1.48484 2.86957 2.14074 2.86957H19.825Z" fill="#FFB34B"/>
<path d="M17.3985 8.96445L16.4238 8.68593C15.9849 8.56211 15.5851 8.32781 15.2626 8.00539C14.94 7.68287 14.7057 7.28303 14.582 6.84408L14.3035 5.86936C14.2895 5.83526 14.2657 5.80609 14.235 5.78557C14.2043 5.76504 14.1683 5.75407 14.1315 5.75407C14.0946 5.75407 14.0586 5.76504 14.028 5.78557C13.9973 5.80609 13.9735 5.83526 13.9594 5.86936L13.6809 6.84408C13.5572 7.28303 13.3229 7.68287 13.0004 8.00539C12.6779 8.32781 12.278 8.56211 11.8391 8.68593L10.8644 8.96445C10.827 8.97504 10.794 8.99764 10.7705 9.02865C10.7472 9.05966 10.7344 9.09755 10.7344 9.13642C10.7344 9.17539 10.7472 9.21317 10.7705 9.24418C10.794 9.2753 10.827 9.29779 10.8644 9.30838L11.8391 9.58702C12.278 9.71072 12.6779 9.94503 13.0004 10.2676C13.3229 10.59 13.5572 10.9898 13.6809 11.4288L13.9594 12.4035C13.9701 12.441 13.9926 12.4738 14.0236 12.4974C14.0547 12.5208 14.0925 12.5334 14.1315 12.5334C14.1704 12.5334 14.2083 12.5208 14.2393 12.4974C14.2703 12.4738 14.2929 12.441 14.3035 12.4035L14.582 11.4288C14.7057 10.9898 14.94 10.59 15.2626 10.2676C15.5851 9.94503 15.9849 9.71072 16.4238 9.58702L17.3985 9.30838C17.4359 9.29779 17.4689 9.2753 17.4924 9.24418C17.5159 9.21317 17.5285 9.17539 17.5285 9.13642C17.5285 9.09755 17.5159 9.05966 17.4924 9.02865C17.4689 8.99764 17.4359 8.97504 17.3985 8.96445Z" fill="white"/>
</g>
<defs>
<filter id="filter0_i_19081_5010" x="0.953125" y="2.86957" width="20.0625" height="16.3356" filterUnits="userSpaceOnUse" color-interpolation-filters="sRGB">
<feFlood flood-opacity="0" result="BackgroundImageFix"/>
<feBlend mode="normal" in="SourceGraphic" in2="BackgroundImageFix" result="shape"/>
<feColorMatrix in="SourceAlpha" type="matrix" values="0 0 0 0 0 0 0 0 0 0 0 0 0 0 0 0 0 0 127 0" result="hardAlpha"/>
<feOffset dy="0.0293805"/>
<feGaussianBlur stdDeviation="0.222397"/>
<feComposite in2="hardAlpha" operator="arithmetic" k2="-1" k3="1"/>
<feColorMatrix type="matrix" values="0 0 0 0 0.513634 0 0 0 0 0.513634 0 0 0 0 0.513634 0 0 0 0.24 0"/>
<feBlend mode="normal" in2="shape" result="effect1_innerShadow_19081_5010"/>
</filter>
</defs>
</svg>
