<svg xmlns="http://www.w3.org/2000/svg" width="32" height="32" viewBox="0 0 32 32" fill="none">
  <path d="M4.99219 1.8697C4.99219 1.51235 5.28188 1.22266 5.63923 1.22266H24.7272C26.7615 1.22266 28.4106 2.87176 28.4106 4.90604V26.8959C28.4106 28.9302 26.7615 30.5793 24.7272 30.5793H6.41568C5.62951 30.5793 4.99219 29.942 4.99219 29.1558V1.8697Z" fill="#22996E"/>
  <path d="M4.4375 2.43351C4.4375 1.77556 4.97087 1.24219 5.62882 1.24219H23.8218C25.3942 1.24219 26.6688 2.51683 26.6688 4.08918V26.4232C26.6688 27.9956 25.3942 29.2702 23.8218 29.2702H5.62882C4.97087 29.2702 4.4375 28.7368 4.4375 28.0789V2.43351Z" fill="#01DE8F"/>
  <path d="M14.1621 29.3017L9.45312 23.7136L15.5859 23.5396L18.6677 20.3651L16.7714 4.35156H20.1587L26.6824 14.3462V26.4806C26.6824 28.0387 25.4193 29.3017 23.8613 29.3017H14.1621Z" fill="#11B076"/>
  <path d="M9.44531 23.7354V20.3301C10.2546 20.8135 11.0534 21.1709 11.8417 21.4021C12.63 21.6334 13.3709 21.749 14.0646 21.749C15.0211 21.749 15.7095 21.4704 16.1299 20.9134C16.5609 20.3563 16.7763 19.526 16.7763 18.4224V4.34375H20.1659V18.4224C20.1659 20.02 19.9189 21.3023 19.4249 22.2692C18.9415 23.2362 18.2583 23.9404 17.3754 24.3818C16.503 24.8233 15.4888 25.044 14.3326 25.044C13.4288 25.044 12.5669 24.9179 11.7471 24.6656C10.9378 24.4239 10.1705 24.1138 9.44531 23.7354Z" fill="white"/>
  <rect x="2.64062" y="5.47656" width="4.76528" height="2.3715" rx="1.18575" fill="#AFFDE1"/>
  <rect x="2.64062" y="23.2539" width="4.76528" height="2.3715" rx="1.18575" fill="#AFFDE1"/>
</svg>