<svg width="24" height="24" viewBox="0 0 24 24" fill="none" xmlns="http://www.w3.org/2000/svg">
<path d="M10.6125 10.6125H3.85625C3.11989 10.6125 2.5 9.99261 2.5 9.25625V3.85625C2.5 3.11989 3.11989 2.5 3.85625 2.5H9.25625C9.99261 2.5 10.6125 3.11989 10.6125 3.85625V10.6125Z" stroke="#A2A2A2"/>
<path d="M13.6406 10.6125V3.85625C13.6406 3.11989 14.2605 2.5 14.9969 2.5H20.3969C21.1332 2.5 21.7531 3.11989 21.7531 3.85625V9.25625C21.7531 9.99261 21.1332 10.6125 20.3969 10.6125H13.6406Z" stroke="#A2A2A2"/>
<path d="M13.6406 13.6367H20.3969C21.1332 13.6367 21.7531 14.2566 21.7531 14.993V20.393C21.7531 21.1293 21.1332 21.7492 20.3969 21.7492H14.9969C14.2605 21.7492 13.6406 21.1293 13.6406 20.393V13.6367Z" stroke="#A2A2A2"/>
<path d="M10.6125 13.6367V20.393C10.6125 21.1293 9.99261 21.7492 9.25625 21.7492H3.85625C3.11989 21.7492 2.5 21.1293 2.5 20.393V14.993C2.5 14.2566 3.11989 13.6367 3.85625 13.6367H10.6125Z" stroke="#A2A2A2"/>
</svg>
