<svg width="25" height="24" viewBox="0 0 25 24" fill="none" xmlns="http://www.w3.org/2000/svg">
<g clip-path="url(#clip0_6775_4255)">
<path d="M2.58691 1.58301C2.48772 1.64107 2.48887 1.66494 2.49707 1.64648C2.50392 1.63095 2.48567 1.65177 2.50781 1.77344C2.51923 1.83601 2.53813 1.91064 2.56641 2.00195L2.68066 2.33203L9.6582 21.2139V21.2148C10.1598 22.581 11.6693 23.3004 13.0146 22.8027C14.3806 22.2973 15.0685 20.7631 14.5234 19.4004C14.0202 18.1428 12.5991 17.478 11.3105 17.8975C10.8443 18.0493 10.441 18.4005 10.207 18.6992C10.1925 18.7178 10.1801 18.7364 10.168 18.7529L10.3271 19.1777L9.90332 19.3711C9.84692 19.3969 9.76499 19.4278 9.66797 19.4365C9.56837 19.4454 9.41052 19.4329 9.26758 19.3193C9.12328 19.2046 9.07606 19.0519 9.06348 18.9502C9.05142 18.8524 9.06474 18.7667 9.07812 18.71C9.07876 18.7073 9.08039 18.7048 9.08105 18.7021L2.65918 1.54785C2.63297 1.56095 2.60801 1.57067 2.58691 1.58301ZM11.4492 18.5586C12.4482 18.1918 13.555 18.7042 13.9219 19.7031C14.2887 20.7022 13.7764 21.8099 12.7773 22.1768C11.7784 22.5433 10.6715 22.0302 10.3047 21.0312C9.93797 20.0322 10.4503 18.9254 11.4492 18.5586Z" fill="#A2A2A2" stroke="#A2A2A2"/>
<path d="M23.459 3.5C23.9644 3.50016 24.4997 3.8691 24.5 4.46875V13.5312L24.4941 13.6406C24.4335 14.1755 23.9328 14.4999 23.459 14.5H2.54102C2.03564 14.4998 1.50026 14.1309 1.5 13.5312V4.46875C1.50026 3.8691 2.03564 3.50016 2.54102 3.5H23.459Z" fill="#2D323E" stroke="#A2A2A2"/>
<path d="M12.624 1.58301C12.7232 1.64107 12.7221 1.66494 12.7139 1.64648C12.707 1.63095 12.7253 1.65177 12.7031 1.77344C12.6917 1.83601 12.6728 1.91064 12.6445 2.00195L12.5303 2.33203L5.55273 21.2139V21.2148C5.05111 22.581 3.54159 23.3004 2.19629 22.8027C0.830325 22.2973 0.142436 20.7631 0.6875 19.4004C1.19079 18.1428 2.61188 17.478 3.90039 17.8975C4.36668 18.0493 4.76996 18.4005 5.00391 18.6992C5.01842 18.7178 5.03087 18.7364 5.04297 18.7529L4.88379 19.1777L5.30762 19.3711C5.36402 19.3969 5.44594 19.4278 5.54297 19.4365C5.64257 19.4454 5.80041 19.4329 5.94336 19.3193C6.08766 19.2046 6.13488 19.0519 6.14746 18.9502C6.15952 18.8524 6.1462 18.7667 6.13281 18.71C6.13218 18.7073 6.13055 18.7048 6.12988 18.7021L12.5518 1.54785C12.578 1.56095 12.6029 1.57067 12.624 1.58301ZM3.76172 18.5586C2.76272 18.1918 1.65594 18.7042 1.28906 19.7031C0.922245 20.7022 1.43454 21.8099 2.43359 22.1768C3.43255 22.5433 4.53947 22.0302 4.90625 21.0312C5.27296 20.0322 4.76066 18.9254 3.76172 18.5586Z" stroke="#A2A2A2"/>
<path d="M3.28409 7.19602V6.18182H8.0625V7.19602H6.28125V12H5.06534V7.19602H3.28409ZM12.1413 12H10.8232L12.8317 6.18182H14.4169L16.4226 12H15.1044L13.647 7.51136H13.6016L12.1413 12ZM12.0589 9.71307H15.1726V10.6733H12.0589V9.71307ZM19.2763 6.18182L20.4496 8.16477H20.495L21.674 6.18182H23.0632L21.2876 9.09091L23.103 12H21.6882L20.495 10.0142H20.4496L19.2564 12H17.8473L19.6683 9.09091L17.8814 6.18182H19.2763Z" fill="#A2A2A2"/>
</g>
<defs>
<clipPath id="clip0_6775_4255">
<rect width="25" height="24" fill="white"/>
</clipPath>
</defs>
</svg>
