<svg width="20" height="20" viewBox="0 0 20 20" fill="none" xmlns="http://www.w3.org/2000/svg">
<g clip-path="url(#clip0_77737_1880)">
<path d="M11.291 9.915C11.291 10.6307 10.7108 11.2109 9.99508 11.2109C9.27939 11.2109 8.69922 10.6307 8.69922 9.915C8.69922 9.19932 9.27939 8.61914 9.99508 8.61914C10.7108 8.61914 11.291 9.19932 11.291 9.915Z" fill="#817E7E"/>
<path fill-rule="evenodd" clip-rule="evenodd" d="M13.4666 13.4989C13.2529 13.3489 13.2034 13.0549 13.3361 12.8301C14.3214 11.1598 14.3539 9.18192 13.2704 6.97671C13.1553 6.74241 13.2377 6.45515 13.4666 6.32963C13.6955 6.20411 13.9841 6.28797 14.1001 6.52187C15.3304 9.00417 15.3308 11.362 14.112 13.3748C13.9768 13.5981 13.6803 13.649 13.4666 13.4989Z" fill="#817E7E"/>
<path fill-rule="evenodd" clip-rule="evenodd" d="M19.056 10.375C19.067 8.31016 18.3835 6.08381 16.9359 3.73316C16.799 3.51086 16.8606 3.21815 17.0796 3.07606C17.2986 2.93397 17.592 2.9963 17.7292 3.21845C19.2535 5.68786 20.0135 8.0919 20.0014 10.38C19.9893 12.651 19.2167 14.7701 17.7387 16.6853C17.5792 16.892 17.2804 16.919 17.0796 16.7522C16.8788 16.5854 16.8521 16.2879 17.011 16.0807C18.3618 14.3201 19.0452 12.4073 19.056 10.375Z" fill="#817E7E"/>
<path fill-rule="evenodd" clip-rule="evenodd" d="M0.94553 10.375C0.934574 8.31016 1.61806 6.08381 3.06566 3.73316C3.20255 3.51086 3.14094 3.21815 2.92193 3.07606C2.70292 2.93397 2.40948 2.9963 2.27236 3.21845C0.747995 5.68786 -0.0119966 8.0919 0.000143154 10.38C0.0121927 12.651 0.784857 14.7701 2.2628 16.6853C2.42229 16.892 2.72112 16.919 2.92193 16.7522C3.12275 16.5854 3.14939 16.2879 2.99048 16.0807C1.63967 14.3201 0.956312 12.4073 0.94553 10.375Z" fill="#817E7E"/>
<path fill-rule="evenodd" clip-rule="evenodd" d="M6.53052 13.4989C6.74418 13.3489 6.79371 13.0549 6.66107 12.8301C5.67573 11.1598 5.64322 9.18192 6.72671 6.97671C6.84184 6.74241 6.75941 6.45515 6.53052 6.32963C6.3016 6.20411 6.01296 6.28797 5.89704 6.52187C4.66673 9.00417 4.66632 11.362 5.88511 13.3748C6.02035 13.5981 6.31686 13.649 6.53052 13.4989Z" fill="#817E7E"/>
</g>
<defs>
<clipPath id="clip0_77737_1880">
<rect width="20" height="20" fill="white"/>
</clipPath>
</defs>
</svg>
