<svg width="375" height="375" viewBox="0 0 375 375" fill="none" xmlns="http://www.w3.org/2000/svg">
<path d="M187.501 11.9043C159.996 11.9043 137.616 30.392 137.616 53.1138V65.5475H163.419L169.645 58.6175C169.645 47.6475 177.203 68.4519 190.478 68.4519C203.758 68.4519 208.336 45.1883 208.336 56.1589L211.589 65.5475H237.391V53.1138C237.391 30.392 215.008 11.9043 187.501 11.9043Z" fill="#747373"/>
<path d="M222.762 314.359C222.762 333.569 207.135 349.197 187.928 349.197H187.069C167.863 349.197 152.235 333.569 152.235 314.359H126.432C126.432 347.8 153.633 375 187.069 375H187.928C221.364 375 248.565 347.8 248.565 314.359H222.762Z" fill="#747373"/>
<path d="M354.456 309.538C354.456 309.538 351.19 297.619 339.285 276.786C331.902 263.865 317.804 252.518 317.804 252.518V179.329C317.804 106.767 259.348 47.7349 187.5 47.7349C115.648 47.7349 57.1963 106.767 57.1963 179.329V252.518C57.1963 252.518 44.6429 261.905 32.7373 279.762C20.8316 297.619 17.8089 318.552 20.0706 322.693C22.3323 326.834 26.6719 329.415 31.3938 329.415H343.607C348.329 329.415 352.668 326.834 354.926 322.698C357.191 318.557 354.926 315.476 354.456 309.538ZM50.5935 303.612C50.5935 303.612 53.6741 293.024 59.5221 285.714C71.4269 270.833 80.9473 263.283 80.9473 263.283C82.2847 261.206 82.9988 258.78 82.9988 256.307V179.329C82.9988 120.998 129.878 73.5381 187.5 73.5381C245.126 73.5381 292.001 120.998 292.001 179.329V256.307C292.001 258.78 292.711 261.201 294.048 263.283C294.048 263.283 312.499 276.786 318.452 285.714C322.449 291.711 326.091 303.612 326.091 303.612H50.5935Z" fill="#747373"/>
</svg>
