<svg width="28" height="28" viewBox="0 0 28 28" fill="none" xmlns="http://www.w3.org/2000/svg">
<g clip-path="url(#clip0_75587_8092)">
<path d="M22 0H6C2.68629 0 0 2.68629 0 6V22C0 25.3137 2.68629 28 6 28H22C25.3137 28 28 25.3137 28 22V6C28 2.68629 25.3137 0 22 0Z" fill="url(#paint0_linear_75587_8092)"/>
<path d="M9.8125 8.48535V20.0003H14.2626C16.4226 20.0003 17.8194 18.6523 17.8194 16.7846C17.8194 15.3554 16.9099 14.3322 15.7892 14.0561C16.7475 13.7312 17.4621 12.773 17.4621 11.5874C17.4621 9.80088 16.1953 8.48535 13.954 8.48535H9.8125ZM12.0213 13.244V10.3693H13.5967C14.6848 10.3693 15.2533 10.9215 15.2533 11.7986C15.2533 12.6756 14.6361 13.244 13.6129 13.244H12.0213ZM12.0213 18.1326V15.0955H13.8728C14.9934 15.0955 15.5781 15.7289 15.5781 16.6384C15.5781 17.5641 14.9285 18.1326 13.8403 18.1326H12.0213Z" fill="white"/>
</g>
<defs>
<linearGradient id="paint0_linear_75587_8092" x1="12.4179" y1="32.9" x2="11.747" y2="-12.6009" gradientUnits="userSpaceOnUse">
<stop stop-color="#4D9610"/>
<stop offset="1" stop-color="#92F042"/>
</linearGradient>
<clipPath id="clip0_75587_8092">
<rect width="28" height="28" fill="white"/>
</clipPath>
</defs>
</svg>
