<svg width="20" height="20" viewBox="0 0 20 20" fill="none" xmlns="http://www.w3.org/2000/svg">
<path d="M18.4 0H1.6C0.716346 0 0 0.716346 0 1.6V18.4C0 19.2837 0.716346 20 1.6 20H18.4C19.2837 20 20 19.2837 20 18.4V1.6C20 0.716346 19.2837 0 18.4 0Z" fill="url(#paint0_linear_33107_693)"/>
<path d="M7 6V14.508H10.288C11.884 14.508 12.916 13.512 12.916 12.132C12.916 11.076 12.244 10.32 11.416 10.116C12.124 9.876 12.652 9.168 12.652 8.292C12.652 6.972 11.716 6 10.06 6H7ZM8.632 9.516V7.392H9.796C10.6 7.392 11.02 7.8 11.02 8.448C11.02 9.096 10.564 9.516 9.808 9.516H8.632ZM8.632 13.128V10.884H10C10.828 10.884 11.26 11.352 11.26 12.024C11.26 12.708 10.78 13.128 9.976 13.128H8.632Z" fill="white"/>
<defs>
<linearGradient id="paint0_linear_33107_693" x1="8.86994" y1="23.5" x2="8.39075" y2="-4.00074" gradientUnits="userSpaceOnUse">
<stop stop-color="#58B709"/>
<stop offset="0.8947" stop-color="#98EE4F"/>
</linearGradient>
</defs>
</svg>
