<svg width="20" height="20" viewBox="0 0 20 20" fill="none" xmlns="http://www.w3.org/2000/svg">
<path d="M9.07031 13.5293H11.6035V7.92871H9.07031V13.5293ZM2.40234 10.0625H4.93555V7.66211H2.40234V10.0625ZM12.4033 13.7959C12.4033 14.0904 12.1646 14.3291 11.8701 14.3291H10.8037V17.1299C10.8037 17.3508 10.6242 17.5303 10.4033 17.5303C10.1825 17.5301 10.0039 17.3507 10.0039 17.1299V14.3291H8.80273C8.50844 14.3289 8.26953 14.0903 8.26953 13.7959V7.66211C8.26953 7.36772 8.50844 7.12916 8.80273 7.12891H10.0039V4.32812C10.0039 4.10731 10.1825 3.9279 10.4033 3.92773C10.6242 3.92773 10.8037 4.10721 10.8037 4.32812V7.12891H11.8701C12.1646 7.12891 12.4033 7.36756 12.4033 7.66211V13.7959ZM5.73633 10.3291C5.73625 10.6235 5.49673 10.8623 5.20215 10.8623H4.13574V12.5957C4.13574 12.8166 3.95627 12.9961 3.73535 12.9961C3.51456 12.996 3.33594 12.8165 3.33594 12.5957V10.8623H2.13574C1.84116 10.8623 1.60164 10.6235 1.60156 10.3291V7.39551C1.60156 7.10104 1.84112 6.8623 2.13574 6.8623H3.33594V5.33594C3.33602 5.11518 3.51461 4.93667 3.73535 4.93652C3.95621 4.93652 4.13566 5.1151 4.13574 5.33594V6.8623H5.20215C5.49678 6.8623 5.73633 7.10104 5.73633 7.39551V10.3291Z" fill="#817E7E"/>
<path d="M15.2109 9.00098H17.6016V5.5332H15.2109V9.00098ZM18.4014 9.26758C18.4014 9.56211 18.1627 9.80078 17.8682 9.80078H16.8018V11.5342C16.8018 11.7551 16.6223 11.9346 16.4014 11.9346C16.1805 11.9345 16.002 11.755 16.002 11.5342V9.80078H14.9443C14.6498 9.80078 14.4102 9.56211 14.4102 9.26758V5.2666C14.4104 4.97211 14.65 4.7334 14.9443 4.7334H16.002V3C16.002 2.77913 16.1805 2.59968 16.4014 2.59961C16.6223 2.59961 16.8018 2.77909 16.8018 3V4.7334H17.8682C18.1625 4.7334 18.4012 4.97211 18.4014 5.2666V9.26758Z" fill="#817E7E"/>
</svg>
