<svg width="14" height="14" viewBox="0 0 14 14" fill="none" xmlns="http://www.w3.org/2000/svg">
<path fill-rule="evenodd" clip-rule="evenodd" d="M0 7C0 3.13532 3.13532 0 7 0C10.8647 0 14 3.13532 14 7C14 10.8647 10.8647 14 7 14C3.13532 14 0 10.8647 0 7ZM7 0.933333C3.65079 0.933333 0.933333 3.65079 0.933333 7C0.933333 10.3492 3.65079 13.0667 7 13.0667C10.3492 13.0667 13.0667 10.3492 13.0667 7C13.0667 3.65079 10.3492 0.933333 7 0.933333Z" fill="#AAAAAA"/>
<path fill-rule="evenodd" clip-rule="evenodd" d="M4.49215 4.49118C4.6744 4.30893 4.96987 4.30893 5.15212 4.49118L6.99991 6.33897L8.84771 4.49118C9.02995 4.30893 9.32543 4.30893 9.50767 4.49118C9.68992 4.67342 9.68992 4.9689 9.50767 5.15114L7.65988 6.99894L9.50767 8.84673C9.68992 9.02898 9.68992 9.32445 9.50767 9.5067C9.32543 9.68894 9.02995 9.68894 8.84771 9.5067L6.99991 7.6589L5.15212 9.5067C4.96987 9.68894 4.6744 9.68894 4.49215 9.5067C4.30991 9.32445 4.30991 9.02898 4.49215 8.84673L6.33995 6.99894L4.49215 5.15114C4.30991 4.9689 4.30991 4.67342 4.49215 4.49118Z" fill="#AAAAAA"/>
</svg>
