<svg width="123" height="37" viewBox="0 0 123 37" fill="none" xmlns="http://www.w3.org/2000/svg">
<path d="M18 36.8788C27.9411 36.8788 36 28.8474 36 18.9401C36 9.03289 27.9411 1.00146 18 1.00146C8.05888 1.00146 0 9.03289 0 18.9401C0 28.8474 8.05888 36.8788 18 36.8788Z" fill="url(#paint0_linear_32859_1380)"/>
<path fill-rule="evenodd" clip-rule="evenodd" d="M26.1668 34.9303L11.9998 23.9997L14.0002 18.9401L10.6152 14.3404L11.9998 10.2007H26.3075L35.9998 18.9848C35.9828 25.9429 31.9906 31.9701 26.1668 34.9303Z" fill="#17875F"/>
<path d="M27.6832 12.7197H23.5773V28.8811C22.9077 28.8811 22.2481 28.7535 21.5983 28.4984C20.9484 28.2629 20.6235 27.9881 20.6235 27.6741V24.1711C19.245 25.0346 17.7484 25.4662 16.1336 25.4662C14.5188 25.4662 13.1995 25.0542 12.1755 24.2299C11.1712 23.3861 10.669 22.2969 10.669 20.9623C10.669 19.9418 11.0235 19.0293 11.7324 18.2246C10.7281 17.8518 9.93058 17.3022 9.33981 16.576C8.749 15.8303 8.45361 14.9471 8.45361 13.9267C8.45361 12.9062 8.86715 11.974 9.69427 11.1301C10.541 10.2862 11.693 9.86426 13.1503 9.86426C14.2136 9.86426 15.0308 10.0998 15.602 10.5708C16.1927 11.0418 16.4881 11.6207 16.4881 12.3076C16.4881 13.701 15.5822 14.6822 13.7706 15.2514C13.4752 15.0159 13.2585 14.6822 13.1207 14.2505C13.928 13.7206 14.3318 13.1613 14.3318 12.5725C14.3318 12.2389 14.2333 11.974 14.0364 11.7777C13.8394 11.5618 13.5244 11.4539 13.0912 11.4539C12.6579 11.4539 12.2346 11.6894 11.821 12.1604C11.4075 12.6314 11.2007 13.2496 11.2007 14.015C11.2007 14.7607 11.4075 15.3887 11.821 15.8991C12.2542 16.3896 12.7958 16.7331 13.4456 16.9293C14.312 16.4976 15.2868 16.1738 16.37 15.9579C17.1182 16.6644 17.5908 17.4003 17.7878 18.1657C16.5668 18.4012 15.533 18.774 14.6863 19.2844C13.8592 19.775 13.4456 20.3442 13.4456 20.9917C13.4456 21.6198 13.6622 22.13 14.0955 22.5225C14.5484 22.9151 15.1884 23.1113 16.0155 23.1113C16.8622 23.1113 17.6992 22.8758 18.5263 22.4048C19.3533 21.9337 20.0524 21.3155 20.6235 20.5502V12.7197H18.5853C17.8764 11.8954 17.522 11.0221 17.522 10.0998H26.7675C27.3779 10.8847 27.6832 11.7581 27.6832 12.7197Z" fill="white"/>
<path d="M63.5781 7V30H59.25V27.6406C58.6146 28.651 57.8906 29.3854 57.0781 29.8438C56.2656 30.3021 55.2552 30.5312 54.0469 30.5312C52.0573 30.5312 50.3802 29.7292 49.0156 28.125C47.6615 26.5104 46.9844 24.4427 46.9844 21.9219C46.9844 19.0156 47.651 16.7292 48.9844 15.0625C50.3281 13.3958 52.1198 12.5625 54.3594 12.5625C55.3906 12.5625 56.3073 12.7917 57.1094 13.25C57.9115 13.6979 58.5625 14.3229 59.0625 15.125V7H63.5781ZM51.5781 21.5938C51.5781 23.1667 51.8906 24.4219 52.5156 25.3594C53.1302 26.3073 54.0677 26.7812 55.3281 26.7812C56.5885 26.7812 57.5469 26.3125 58.2031 25.375C58.8594 24.4375 59.1875 23.224 59.1875 21.7344C59.1875 19.651 58.6615 18.1615 57.6094 17.2656C56.9635 16.724 56.2135 16.4531 55.3594 16.4531C54.0573 16.4531 53.099 16.9479 52.4844 17.9375C51.8802 18.9167 51.5781 20.1354 51.5781 21.5938ZM83.0312 20V30H78.4844V19.6406C78.4844 18.724 78.3281 17.9844 78.0156 17.4219C77.6094 16.6302 76.8385 16.2344 75.7031 16.2344C74.526 16.2344 73.6302 16.6302 73.0156 17.4219C72.4115 18.2031 72.1094 19.3229 72.1094 20.7812V30H67.6719V7.04688H72.1094V15.1875C72.7552 14.1979 73.5 13.5104 74.3438 13.125C75.1979 12.7292 76.0938 12.5312 77.0312 12.5312C78.0833 12.5312 79.0365 12.7135 79.8906 13.0781C80.7552 13.4427 81.4635 14 82.0156 14.75C82.4844 15.3854 82.7708 16.0417 82.875 16.7188C82.9792 17.3854 83.0312 18.4792 83.0312 20ZM87.8438 14.8125C89.0208 13.3125 91.0417 12.5625 93.9062 12.5625C95.7708 12.5625 97.4271 12.9323 98.875 13.6719C100.323 14.4115 101.047 15.8073 101.047 17.8594V25.6719C101.047 26.2135 101.057 26.8698 101.078 27.6406C101.109 28.224 101.198 28.6198 101.344 28.8281C101.49 29.0365 101.708 29.2083 102 29.3438V30H97.1562C97.0208 29.6562 96.9271 29.3333 96.875 29.0312C96.8229 28.7292 96.7812 28.3854 96.75 28C96.1354 28.6667 95.4271 29.2344 94.625 29.7031C93.6667 30.2552 92.5833 30.5312 91.375 30.5312C89.8333 30.5312 88.5573 30.0938 87.5469 29.2188C86.5469 28.3333 86.0469 27.0833 86.0469 25.4688C86.0469 23.375 86.8542 21.8594 88.4688 20.9219C89.3542 20.4115 90.6562 20.0469 92.375 19.8281L93.8906 19.6406C94.7135 19.5365 95.3021 19.4062 95.6562 19.25C96.2917 18.9792 96.6094 18.5573 96.6094 17.9844C96.6094 17.2865 96.3646 16.8073 95.875 16.5469C95.3958 16.276 94.6875 16.1406 93.75 16.1406C92.6979 16.1406 91.9531 16.401 91.5156 16.9219C91.2031 17.3073 90.9948 17.8281 90.8906 18.4844H86.5938C86.6875 16.9948 87.1042 15.7708 87.8438 14.8125ZM91.1562 26.7812C91.5729 27.125 92.0833 27.2969 92.6875 27.2969C93.6458 27.2969 94.526 27.0156 95.3281 26.4531C96.1406 25.8906 96.5625 24.8646 96.5938 23.375V21.7188C96.3125 21.8958 96.026 22.0417 95.7344 22.1562C95.4531 22.2604 95.0625 22.3594 94.5625 22.4531L93.5625 22.6406C92.625 22.8073 91.9531 23.0104 91.5469 23.25C90.8594 23.6562 90.5156 24.2865 90.5156 25.1406C90.5156 25.901 90.7292 26.4479 91.1562 26.7812ZM113.031 16.2656C111.521 16.2656 110.484 16.9062 109.922 18.1875C109.63 18.8646 109.484 19.7292 109.484 20.7812V30H105.047V13H109.344V15.4844C109.917 14.6094 110.458 13.9792 110.969 13.5938C111.885 12.9062 113.047 12.5625 114.453 12.5625C116.214 12.5625 117.651 13.026 118.766 13.9531C119.891 14.8698 120.453 16.3958 120.453 18.5312V30H115.891V19.6406C115.891 18.7448 115.771 18.0573 115.531 17.5781C115.094 16.7031 114.26 16.2656 113.031 16.2656Z" fill="#269970"/>
<defs>
<linearGradient id="paint0_linear_32859_1380" x1="33.75" y1="31.4972" x2="20.9728" y2="0.483001" gradientUnits="userSpaceOnUse">
<stop stop-color="#138C61"/>
<stop offset="1" stop-color="#4DBA93" stop-opacity="0.99"/>
</linearGradient>
</defs>
</svg>
