<svg width="1025" height="1025" viewBox="0 0 1025 1025" fill="none" xmlns="http://www.w3.org/2000/svg">
<path fill-rule="evenodd" clip-rule="evenodd" d="M808.259 88.1406H88.259L88.259 832.141H808.259V88.1406ZM88.259 44.1406C63.9585 44.1406 44.259 63.8401 44.259 88.1406V832.141C44.259 856.441 63.9585 876.141 88.259 876.141H808.259C832.56 876.141 852.259 856.441 852.259 832.141V88.1406C852.259 63.8401 832.56 44.1406 808.259 44.1406H88.259Z" fill="#747373"/>
<path d="M156.49 721.141C156.49 710.647 164.996 702.141 175.49 702.141H641.49C651.983 702.141 660.49 710.647 660.49 721.141C660.49 731.634 651.983 740.141 641.49 740.141H175.49C164.996 740.141 156.49 731.634 156.49 721.141Z" fill="#747373"/>
<path d="M156.49 583.141C156.49 572.647 164.996 564.141 175.49 564.141H437.259C447.752 564.141 456.259 572.647 456.259 583.141C456.259 593.634 447.752 602.141 437.259 602.141H175.49C164.996 602.141 156.49 593.634 156.49 583.141Z" fill="#747373"/>
<path fill-rule="evenodd" clip-rule="evenodd" d="M329.746 311.807C358.925 311.807 382.58 288.153 382.58 258.974C382.58 229.795 358.925 206.141 329.746 206.141C300.567 206.141 276.913 229.795 276.913 258.974C276.913 288.153 300.567 311.807 329.746 311.807ZM329.746 355.807C383.226 355.807 426.58 312.454 426.58 258.974C426.58 205.494 383.226 162.141 329.746 162.141C276.267 162.141 232.913 205.494 232.913 258.974C232.913 312.454 276.267 355.807 329.746 355.807Z" fill="#747373"/>
<path fill-rule="evenodd" clip-rule="evenodd" d="M185.665 379.404C213.04 340.533 259.466 307.325 331.34 312.545L328.152 356.429C274.11 352.504 241.617 376.372 221.64 404.738C200.636 434.563 194.135 468.741 194.261 479.893L150.263 480.388C150.034 460.038 159.318 416.816 185.665 379.404Z" fill="#747373"/>
<path fill-rule="evenodd" clip-rule="evenodd" d="M473.827 379.404C446.453 340.533 400.026 307.325 328.153 312.545L331.34 356.429C385.383 352.504 417.876 376.372 437.853 404.738C458.857 434.563 465.357 468.741 465.232 479.893L509.229 480.388C509.458 460.038 500.175 416.816 473.827 379.404Z" fill="#747373"/>
<path d="M172.259 876.141V936.141C172.259 960.441 191.959 980.141 216.259 980.141H936.259C960.56 980.141 980.259 960.441 980.259 936.141V192.141C980.259 167.84 960.56 148.141 936.259 148.141H852.259V192.141H936.259V936.141H216.259V876.141H172.259Z" fill="#747373"/>
</svg>
