<svg width="16" height="16" viewBox="0 0 16 16" fill="none" xmlns="http://www.w3.org/2000/svg">
<g clip-path="url(#clip0_4078_6200)">
<path d="M15.3333 10C14.9652 10 14.6667 10.2984 14.6667 10.6667V14C14.6667 14.1768 14.5964 14.3464 14.4714 14.4714C14.3464 14.5964 14.1768 14.6667 14 14.6667H2C1.63192 14.6667 1.33326 14.3681 1.33326 14V10.6667C1.33326 10.2984 1.03482 10 0.666743 10C0.29844 10 0 10.2984 0 10.6667V14C0 14.5304 0.210714 15.0391 0.585714 15.4143C0.960937 15.7893 1.46966 16 2 16H14C14.5304 16 15.0391 15.7893 15.4143 15.4143C15.7893 15.0391 16 14.5303 16 14V10.6667C16 10.49 15.9297 10.3203 15.8047 10.1953C15.6797 10.0703 15.51 10 15.3333 10Z" fill="#817E7E"/>
<path d="M6.37794 9.50002L7.63131 10.8333C7.73488 10.9442 7.87975 11.0074 8.03131 11.0074C8.18309 11.0074 8.32796 10.9442 8.43131 10.8333L9.68468 9.50002L10.4713 8.66008L10.4715 8.65986C10.6191 8.49825 10.6577 8.26477 10.5697 8.06431C10.4818 7.86365 10.2838 7.73396 10.0648 7.73329H8.66484V0.400141C8.66484 0.223353 8.59452 0.0537127 8.46952 -0.0712873C8.34452 -0.196287 8.17488 -0.266602 7.9981 -0.266602C7.63002 -0.266602 7.33135 0.0318384 7.33135 0.400141V7.73329H5.9981C5.78024 7.73663 5.58471 7.86722 5.49832 8.06722C5.41216 8.26722 5.45122 8.49914 5.5981 8.65984L6.37794 9.50002Z" fill="#817E7E"/>
</g>
<defs>
<clipPath id="clip0_4078_6200">
<rect width="16" height="16" fill="white"/>
</clipPath>
</defs>
</svg>
