<svg width="20" height="20" viewBox="0 0 20 20" fill="none" xmlns="http://www.w3.org/2000/svg">
<path d="M2.0528 2.8418H17.9468C18.8918 2.8418 19.6568 3.6078 19.6568 4.5528V15.2128C19.6574 15.6629 19.4805 16.095 19.1645 16.4155C18.8485 16.736 18.4188 16.919 17.9688 16.9248L2.0748 17.1308C1.84834 17.1337 1.62357 17.0916 1.4135 17.007C1.20343 16.9224 1.01225 16.7969 0.851046 16.6379C0.689841 16.4788 0.561818 16.2893 0.4744 16.0804C0.386983 15.8715 0.341911 15.6473 0.341797 15.4208V4.5518C0.341797 3.6068 1.1078 2.8418 2.0528 2.8418Z" stroke="#747373" stroke-width="0.684"/>
<path d="M19.601 6H0.399C0.178638 6 0 6.17841 0 6.3985C0 6.61859 0.178638 6.797 0.399 6.797H19.601C19.8214 6.797 20 6.61859 20 6.3985C20 6.17841 19.8214 6 19.601 6Z" fill="#747373"/>
<path d="M3.194 4H2.4C2.17909 4 2 4.17909 2 4.4C2 4.62091 2.17909 4.8 2.4 4.8H3.194C3.41491 4.8 3.594 4.62091 3.594 4.4C3.594 4.17909 3.41491 4 3.194 4Z" fill="#747373"/>
<path d="M5.58463 4H4.79063C4.56971 4 4.39062 4.17909 4.39062 4.4C4.39062 4.62091 4.56971 4.8 4.79063 4.8H5.58463C5.80554 4.8 5.98463 4.62091 5.98463 4.4C5.98463 4.17909 5.80554 4 5.58463 4Z" fill="#747373"/>
<path d="M7.97525 4H7.18125C6.96034 4 6.78125 4.17909 6.78125 4.4C6.78125 4.62091 6.96034 4.8 7.18125 4.8H7.97525C8.19616 4.8 8.37525 4.62091 8.37525 4.4C8.37525 4.17909 8.19616 4 7.97525 4Z" fill="#747373"/>
<path d="M4 12.734V11.716L7.543 10.228V11.342L5.203 12.215L5.241 12.162V12.292L5.204 12.235L7.544 13.111V14.221L4 12.734ZM11.148 9L9.533 15H8.513L10.127 9H11.148ZM15.66 12.734L12.117 14.222V13.11L14.456 12.234L14.422 12.29V12.16L14.456 12.214L12.116 11.341V10.227L15.66 11.715V12.733V12.734Z" fill="#747373"/>
</svg>
