<svg width="20" height="20" viewBox="0 0 20 20" fill="none" xmlns="http://www.w3.org/2000/svg">
<g clip-path="url(#clip0_140557_3309)">
<path d="M3.51719 1.17003C3.51719 1.1676 3.51916 1.16563 3.52159 1.16563H15.4516C16.5021 1.16563 17.3537 2.01723 17.3537 3.06774V16.8114C17.3537 17.8619 16.5021 18.7135 15.4516 18.7135H4.00687C3.73643 18.7135 3.51719 18.4943 3.51719 18.2238V1.17003Z" stroke="#747373" stroke-width="0.8"/>
<path d="M7.19487 14.5001V12.8649C7.61849 13.1248 8.03646 13.3196 8.44878 13.4495C8.86111 13.5795 9.25649 13.6444 9.63492 13.6444C10.1772 13.6444 10.5669 13.4863 10.8041 13.17C11.047 12.848 11.1684 12.382 11.1684 11.772V4.20613H12.7782V11.772C12.7782 12.591 12.6511 13.2547 12.3969 13.763C12.1484 14.2657 11.7954 14.6357 11.3379 14.8729C10.886 15.1045 10.3579 15.2203 9.75354 15.2203C9.27908 15.2203 8.83004 15.1525 8.40642 15.0169C7.9828 14.8814 7.57895 14.7091 7.19487 14.5001Z" fill="#747373"/>
<rect x="1.64844" y="3.42188" width="2.9783" height="1" rx="0.5" fill="#747373"/>
<rect x="1.64844" y="14.5352" width="2.9783" height="1" rx="0.5" fill="#747373"/>
</g>
<defs>
<clipPath id="clip0_140557_3309">
<rect width="20" height="20" fill="white"/>
</clipPath>
</defs>
</svg>
