<svg width="1025" height="1025" viewBox="0 0 1025 1025" fill="none" xmlns="http://www.w3.org/2000/svg">
<path fill-rule="evenodd" clip-rule="evenodd" d="M508.816 471.072L498.436 441.758C469.331 359.557 391.267 300.891 299.532 300.891C182.794 300.891 88.2588 395.426 88.2588 512.164C88.2588 628.901 182.794 723.436 299.532 723.436C391.267 723.436 469.331 664.768 498.436 582.569L508.816 553.255H768.986V723.436H851.167V553.255H936.259V471.072H508.816ZM936.259 427.072C960.559 427.072 980.259 446.771 980.259 471.072V553.255C980.259 577.556 960.559 597.255 936.259 597.255H895.167V723.436C895.167 747.737 875.468 767.436 851.167 767.436H768.986C744.685 767.436 724.986 747.737 724.986 723.436V597.255H539.913C504.813 696.385 410.575 767.436 299.532 767.436C158.493 767.436 44.2588 653.202 44.2588 512.164C44.2588 371.125 158.493 256.891 299.532 256.891C410.575 256.891 504.813 327.94 539.913 427.072H936.259ZM299.532 641.253C228.22 641.253 170.44 583.477 170.44 512.162C170.44 440.845 228.221 383.072 299.532 383.072C370.844 383.072 428.623 440.848 428.623 512.164C428.623 583.48 370.842 641.253 299.532 641.253ZM214.44 512.162C214.44 559.176 252.52 597.253 299.532 597.253C346.544 597.253 384.623 559.178 384.623 512.164C384.623 465.149 346.544 427.072 299.532 427.072C252.52 427.072 214.44 465.147 214.44 512.162Z" fill="#747373"/>
</svg>
