<svg width="100" height="100" viewBox="0 0 100 100" fill="none" xmlns="http://www.w3.org/2000/svg">
<path d="M22.17 49.6516C22.17 55.0569 23.7729 60.3409 26.7759 64.8353C29.779 69.3297 34.0474 72.8327 39.0413 74.9012C44.0352 76.9697 49.5303 77.511 54.8318 76.4564C60.1333 75.4019 65.0031 72.799 68.8252 68.9768C72.6474 65.1546 75.2503 60.2849 76.3049 54.9834C77.3594 49.6819 76.8182 44.1867 74.7496 39.1928C72.6811 34.1989 69.1781 29.9306 64.6837 26.9275C60.1893 23.9245 54.9054 22.3216 49.5 22.3216C42.2524 22.3242 35.3025 25.2045 30.1777 30.3293C25.0529 35.4541 22.1727 42.404 22.17 49.6516ZM49.76 29.4816C55.1784 29.4816 60.3748 31.634 64.2062 35.4654C68.0376 39.2968 70.19 44.4932 70.19 49.9116C70.19 55.3299 68.0376 60.5264 64.2062 64.3578C60.3748 68.1891 55.1784 70.3416 49.76 70.3416V29.4816ZM51.5 16.7116V4.45158C51.5207 4.13745 51.4768 3.82241 51.3708 3.52597C51.2649 3.22952 51.0992 2.95798 50.8841 2.72816C50.6689 2.49834 50.4089 2.31513 50.1201 2.18988C49.8313 2.06463 49.5198 2 49.205 2C48.8902 2 48.5787 2.06463 48.2899 2.18988C48.0011 2.31513 47.7411 2.49834 47.5259 2.72816C47.3108 2.95798 47.1451 3.22952 47.0392 3.52597C46.9332 3.82241 46.8893 4.13745 46.91 4.45158V16.7116C46.9485 17.2941 47.207 17.8401 47.6332 18.2391C48.0593 18.638 48.6212 18.86 49.205 18.86C49.7888 18.86 50.3507 18.638 50.7768 18.2391C51.203 17.8401 51.4615 17.2941 51.5 16.7116V16.7116ZM82.87 19.1316C83.2725 18.695 83.4905 18.1196 83.4784 17.5259C83.4663 16.9323 83.2251 16.3663 82.8052 15.9464C82.3853 15.5265 81.8193 15.2853 81.2256 15.2732C80.632 15.2611 80.0566 15.4791 79.62 15.8816L70.99 24.5516C70.5875 24.9882 70.3695 25.5635 70.3816 26.1572C70.3937 26.7509 70.6349 27.3169 71.0548 27.7368C71.4747 28.1567 72.0407 28.3979 72.6344 28.41C73.228 28.422 73.8034 28.204 74.24 27.8016L82.87 19.1316ZM82.44 51.6516H94.7C95.0141 51.6723 95.3292 51.6284 95.6256 51.5224C95.9221 51.4165 96.1936 51.2508 96.4234 51.0357C96.6532 50.8205 96.8364 50.5605 96.9617 50.2717C97.087 49.9828 97.1516 49.6714 97.1516 49.3566C97.1516 49.0418 97.087 48.7303 96.9617 48.4415C96.8364 48.1527 96.6532 47.8926 96.4234 47.6775C96.1936 47.4624 95.9221 47.2967 95.6256 47.1907C95.3292 47.0848 95.0141 47.0408 94.7 47.0616H82.44C81.8575 47.1 81.3114 47.3586 80.9125 47.7847C80.5135 48.2109 80.2916 48.7728 80.2916 49.3566C80.2916 49.9403 80.5135 50.5023 80.9125 50.9284C81.3114 51.3546 81.8575 51.6131 82.44 51.6516ZM71.35 71.1416C71.1356 71.3544 70.9655 71.6076 70.8494 71.8865C70.7333 72.1654 70.6735 72.4645 70.6735 72.7666C70.6735 73.0687 70.7333 73.3678 70.8494 73.6467C70.9655 73.9256 71.1356 74.1787 71.35 74.3916L80.02 83.0616C80.4525 83.4897 81.0365 83.7298 81.645 83.7298C82.2535 83.7298 82.8375 83.4897 83.27 83.0616C83.4844 82.8487 83.6545 82.5956 83.7706 82.3167C83.8867 82.0378 83.9465 81.7387 83.9465 81.4366C83.9465 81.1345 83.8867 80.8354 83.7706 80.5565C83.6545 80.2776 83.4844 80.0244 83.27 79.8116L74.6 71.1416C74.3871 70.9272 74.134 70.7571 73.8551 70.641C73.5762 70.5249 73.2771 70.4651 72.975 70.4651C72.6729 70.4651 72.3738 70.5249 72.0949 70.641C71.816 70.7571 71.5629 70.9272 71.35 71.1416ZM47.5 82.5916V94.8516C47.4793 95.1657 47.5232 95.4807 47.6292 95.7772C47.7351 96.0736 47.9008 96.3452 48.1159 96.575C48.3311 96.8048 48.5911 96.988 48.8799 97.1133C49.1687 97.2385 49.4802 97.3031 49.795 97.3031C50.1098 97.3031 50.4213 97.2385 50.7101 97.1133C50.9989 96.988 51.2589 96.8048 51.4741 96.575C51.6892 96.3452 51.8549 96.0736 51.9608 95.7772C52.0668 95.4807 52.1107 95.1657 52.09 94.8516V82.5916C52.0515 82.0091 51.793 81.463 51.3668 81.0641C50.9407 80.6651 50.3788 80.4431 49.795 80.4431C49.2112 80.4431 48.6493 80.6651 48.2232 81.0641C47.797 81.463 47.5385 82.0091 47.5 82.5916V82.5916ZM16.09 80.1716C15.7703 80.4938 15.5531 80.9034 15.4657 81.3488C15.3783 81.7942 15.4247 82.2555 15.5989 82.6747C15.7732 83.0938 16.0676 83.4519 16.4451 83.7041C16.8225 83.9562 17.2661 84.091 17.72 84.0916C18.021 84.0929 18.3192 84.0343 18.5973 83.9193C18.8754 83.8043 19.1279 83.6351 19.34 83.4216L28.01 74.7516C28.4125 74.315 28.6305 73.7396 28.6184 73.1459C28.6063 72.5523 28.3651 71.9862 27.9452 71.5664C27.5253 71.1465 26.9593 70.9053 26.3656 70.8932C25.772 70.8811 25.1966 71.0991 24.76 71.5016L16.09 80.1716ZM2 49.9116C2.00264 50.5198 2.24613 51.1023 2.67718 51.5315C3.10823 51.9606 3.69173 52.2016 4.3 52.2016H16.56C17.1425 52.1631 17.6886 51.9046 18.0875 51.4784C18.4865 51.0523 18.7084 50.4903 18.7084 49.9066C18.7084 49.3228 18.4865 48.7609 18.0875 48.3347C17.6886 47.9086 17.1425 47.65 16.56 47.6116H4.3C3.69 47.6116 3.10499 47.8539 2.67365 48.2852C2.24232 48.7166 2 49.3016 2 49.9116V49.9116ZM27.65 28.1616C27.8644 27.9487 28.0345 27.6956 28.1506 27.4167C28.2667 27.1378 28.3265 26.8387 28.3265 26.5366C28.3265 26.2345 28.2667 25.9354 28.1506 25.6565C28.0345 25.3776 27.8644 25.1244 27.65 24.9116L18.98 16.2416C18.5434 15.8391 17.968 15.6211 17.3744 15.6332C16.7807 15.6453 16.2147 15.8865 15.7948 16.3064C15.3749 16.7263 15.1337 17.2923 15.1216 17.8859C15.1095 18.4796 15.3275 19.055 15.73 19.4916L24.4 28.1616C24.8325 28.5897 25.4165 28.8298 26.025 28.8298C26.6335 28.8298 27.2175 28.5897 27.65 28.1616V28.1616Z" fill="#747373"/>
</svg>
