<svg width="375" height="375" viewBox="0 0 375 375" fill="none" xmlns="http://www.w3.org/2000/svg">
<g clip-path="url(#clip0)">
<path d="M187.496 11.9023C159.991 11.9023 137.611 30.3901 137.611 53.1119V65.5456H163.414L169.64 58.6156C169.64 47.6456 177.198 68.45 190.473 68.45C203.753 68.45 208.331 45.1864 208.331 56.157L211.584 65.5456H237.387V53.1119C237.387 30.3901 215.004 11.9023 187.496 11.9023Z" fill="#747373"/>
<path d="M222.764 314.347C222.764 333.557 207.137 349.185 187.931 349.185H187.072C167.866 349.185 152.238 333.557 152.238 314.347H126.435C126.435 347.788 153.636 374.988 187.072 374.988H187.931C221.366 374.988 248.567 347.788 248.567 314.347H222.764Z" fill="#747373"/>
<path d="M354.458 309.533C354.458 309.533 351.192 297.614 339.287 276.781C331.904 263.86 317.806 252.513 317.806 252.513V179.324C317.806 106.762 259.35 47.7295 187.502 47.7295C115.65 47.7295 57.1982 106.762 57.1982 179.324V252.513C57.1982 252.513 44.6448 261.9 32.7392 279.757C20.8335 297.614 17.8108 318.547 20.0725 322.688C22.3342 326.829 26.6738 329.41 31.3957 329.41H343.609C348.331 329.41 352.67 326.829 354.928 322.693C357.193 318.552 354.928 315.471 354.458 309.533ZM50.5954 303.607C50.5954 303.607 53.676 293.019 59.524 285.709C71.4288 270.828 80.9492 263.278 80.9492 263.278C82.2866 261.201 83.0007 258.775 83.0007 256.302V179.324C83.0007 120.993 129.88 73.5327 187.502 73.5327C245.128 73.5327 292.003 120.993 292.003 179.324V256.302C292.003 258.775 292.713 261.196 294.05 263.278C294.05 263.278 312.501 276.781 318.454 285.709C322.451 291.706 326.093 303.607 326.093 303.607H50.5954Z" fill="#747373"/>
<path d="M305.001 173.005C343.661 173.005 375.001 141.665 375.001 103.005C375.001 64.345 343.661 33.0049 305.001 33.0049C266.341 33.0049 235.001 64.345 235.001 103.005C235.001 141.665 266.341 173.005 305.001 173.005Z" fill="#FF193D"/>
</g>
<defs>
<clipPath id="clip0">
<rect width="375" height="375" fill="white"/>
</clipPath>
</defs>
</svg>
