<svg width="375" height="375" viewBox="0 0 375 375" fill="none" xmlns="http://www.w3.org/2000/svg">
<g clip-path="url(#clip0_55895_1988)">
<path d="M187.495 11.9023C159.99 11.9023 137.61 30.3901 137.61 53.1119V65.5456H163.413L169.639 58.6156C169.639 47.6456 177.197 68.45 190.472 68.45C203.752 68.45 208.33 45.1864 208.33 56.157L211.583 65.5456H237.386V53.1119C237.386 30.3901 215.003 11.9023 187.495 11.9023Z" fill="#8E8E8E"/>
<path d="M222.764 314.347C222.764 333.557 207.137 349.185 187.931 349.185H187.072C167.866 349.185 152.238 333.557 152.238 314.347H126.435C126.435 347.788 153.636 374.988 187.072 374.988H187.931C221.366 374.988 248.567 347.788 248.567 314.347H222.764Z" fill="#8E8E8E"/>
<path d="M354.458 309.533C354.458 309.533 351.192 297.614 339.287 276.781C331.904 263.86 317.806 252.513 317.806 252.513V179.324C317.806 106.762 259.35 47.7295 187.502 47.7295C115.65 47.7295 57.1977 106.762 57.1977 179.324V252.513C57.1977 252.513 44.6443 261.9 32.7387 279.757C20.833 297.614 17.8103 318.547 20.072 322.688C22.3337 326.829 26.6733 329.41 31.3952 329.41H343.609C348.331 329.41 352.67 326.829 354.928 322.693C357.193 318.552 354.928 315.471 354.458 309.533ZM50.5949 303.607C50.5949 303.607 53.6755 293.019 59.5235 285.709C71.4283 270.828 80.9487 263.278 80.9487 263.278C82.2861 261.201 83.0002 258.775 83.0002 256.302V179.324C83.0002 120.993 129.88 73.5327 187.502 73.5327C245.128 73.5327 292.003 120.993 292.003 179.324V256.302C292.003 258.775 292.713 261.196 294.05 263.278C294.05 263.278 312.501 276.781 318.454 285.709C322.451 291.706 326.093 303.607 326.093 303.607H50.5949Z" fill="#8E8E8E"/>
<path d="M305.001 173.005C343.661 173.005 375.001 141.665 375.001 103.005C375.001 64.345 343.661 33.0049 305.001 33.0049C266.341 33.0049 235.001 64.345 235.001 103.005C235.001 141.665 266.341 173.005 305.001 173.005Z" fill="#FF193D"/>
</g>
<defs>
<clipPath id="clip0_55895_1988">
<rect width="375" height="375" fill="white"/>
</clipPath>
</defs>
</svg>
