<svg width="1025" height="1025" viewBox="0 0 1025 1025" fill="none" xmlns="http://www.w3.org/2000/svg">
<path d="M735.098 518.312V638.313C733.986 679.61 723.848 720.163 705.395 757.126C640.494 867.621 645.989 855.443 645.989 890.79C645.989 898.992 639.34 905.642 631.137 905.642H378.66C370.458 905.642 363.809 898.992 363.809 890.79C365.485 875.067 361.481 859.264 352.521 846.235L278.263 743.759C248.561 702.885 238.299 651.033 250.194 601.926C265.046 540.886 317.917 486.233 367.967 448.807C383.195 437.117 401.792 430.658 420.987 430.391H542.028C550.23 430.391 556.879 437.04 556.879 445.242V460.094C556.879 501.105 523.633 534.352 482.621 534.352H438.067C421.662 534.352 408.363 547.65 408.363 564.055C408.363 580.46 421.662 593.758 438.067 593.758C457.79 591.261 477.814 594.564 495.691 603.263C522.35 616.315 554.562 606.358 569.206 580.54L581.236 561.382C565.64 586.535 573.034 619.543 597.87 635.64C623.934 650.948 657.465 642.399 673.019 616.481L735.098 518.312Z" fill="#FFD919"/>
<path d="M256.432 580.234L255.244 583.205C255.539 582.177 255.937 581.182 256.432 580.234Z" fill="#FDD7AD"/>
<path d="M591.04 103.655C591.04 111.972 576.188 193.655 532.524 430.39H420.989C401.776 430.379 383.074 436.578 367.672 448.063C323.117 481.628 276.928 528.113 256.582 580.094C256.582 578.609 256.582 580.094 288.513 500.044C298.975 473.943 301.758 445.395 296.532 417.766L246.186 145.982C241.557 124.826 248.808 102.828 265.108 88.5704C281.408 74.3128 304.176 70.0548 324.527 77.4577C344.878 84.8606 359.589 102.751 362.919 124.15L415.939 365.191C415.939 369.292 419.264 372.617 423.365 372.617C427.466 372.617 430.791 369.292 430.791 365.191L473.712 91.9219C480.339 62.6762 507.722 42.9547 537.561 45.9386C567.399 48.9224 590.335 73.6759 591.04 103.655V103.655Z" fill="#FFD919"/>
<path d="M555.543 400.703L538.612 430.406H413.562C397.51 430.501 381.905 435.702 369.007 445.258C324.452 478.823 276.779 528.427 256.581 580.259C256.581 578.774 256.581 580.259 288.511 500.209C292.554 490.121 295.444 479.609 297.125 468.872C313.931 451.689 332.055 435.848 351.334 421.495C369.323 408.096 391.131 400.809 413.562 400.703H555.543Z" fill="#F2B600"/>
<path d="M495.691 603.271C459.75 583.221 436.285 603.271 417.126 585.003C408.684 576.511 406.167 563.779 410.742 552.712C415.318 541.646 426.092 534.41 438.067 534.359H502.077C492.275 562.132 468.513 589.756 495.691 603.271V603.271Z" fill="#F2B600"/>
<path d="M749.95 478.355C749.95 498.85 748.019 496.771 673.019 616.92C663.198 633.888 644.941 644.188 625.34 643.817C605.738 643.447 587.883 632.465 578.711 615.138C571.438 621.999 563.051 627.573 553.909 631.623C539.001 604.865 539.74 572.136 555.84 546.078L624.751 436.176C636.182 417.957 653.876 404.542 674.504 398.453C678.478 407.866 680.645 417.942 680.89 428.156C696.959 422.85 714.6 425.603 728.288 435.552C741.976 445.502 750.039 461.433 749.95 478.355V478.355Z" fill="#FDD7AD"/>
<path d="M749.95 478.376C749.95 498.871 748.02 496.792 673.019 616.941C663.199 633.909 644.941 644.208 625.34 643.838C605.739 643.468 587.883 632.486 578.711 615.159C570.263 597.994 571.216 577.694 581.236 561.396L641.534 465.158C652.078 448.375 659.356 434.415 680.89 427.732C697.034 422.399 714.761 425.202 728.471 435.257C742.182 445.311 750.184 461.375 749.95 478.376V478.376Z" fill="#FFD919"/>
<path d="M674.504 398.455C662.818 370.819 637.105 351.659 607.281 348.362C577.457 345.066 548.181 358.148 530.741 382.564L497.473 423.852L549.602 430.238C552.127 432.02 551.384 436.772 551.384 453.852C551.384 497.367 518.711 537.169 482.919 537.169H470.74L446.235 563.011C450.691 594.051 449.948 609.645 475.938 626.427C499.337 641.021 528.477 642.972 553.612 631.625C568.474 657.246 595.76 673.113 625.378 673.357C654.995 673.601 682.54 658.185 697.821 632.813L766.287 523.951C785.094 494.993 784.051 457.427 763.668 429.556C743.284 401.685 707.8 389.308 674.504 398.455ZM741.336 508.357C732.128 523.209 742.673 505.535 673.019 616.922C663.199 633.89 644.941 644.19 625.34 643.82C605.739 643.449 587.884 632.467 578.711 615.14C590.147 604.744 587.474 608.902 666.781 481.476C677.086 465.759 682.274 447.238 681.633 428.456C702.907 422.5 725.653 430.242 738.877 447.939C752.1 465.636 753.077 489.644 741.336 508.357V508.357Z" fill="#F2B600"/>
<path d="M651.336 432.16C651.093 443.832 647.707 455.222 641.534 465.131L581.236 561.369C568.909 580.825 562.672 594.34 544.256 603.251C527.763 611.881 507.936 611.146 492.127 601.32C479.057 593.003 479.948 588.102 477.275 572.953L483.067 566.864C535.196 566.864 581.236 514.735 581.236 453.844V434.685C581.947 418.15 570.343 403.628 554.058 400.675C567.291 380.966 591.986 372.418 614.572 379.729C637.157 387.039 652.16 408.436 651.336 432.16V432.16Z" fill="#FFD919"/>
<path d="M471.483 534.355C485.108 534.773 498.695 532.71 511.582 528.266C499.054 534.023 485.156 536.133 471.483 534.355Z" fill="#FDD7AD"/>
<path d="M542.028 430.383H535.048L535.196 430.234H550.345L542.028 430.383Z" fill="#FDD7AD"/>
<path d="M554.058 400.703C570.463 403.452 582.284 417.942 581.682 434.565V453.723C581.682 514.615 538.018 570.011 485.889 570.011L468.81 564.071C467.161 554.103 468.081 543.88 471.483 534.367C485.156 536.098 499.04 533.99 511.583 528.278H512.919C539.785 516.273 557.028 489.536 556.88 460.109V445.258C556.88 442.882 556.88 430.406 535.048 430.406C536.533 428.773 549.306 406.495 554.058 400.703V400.703Z" fill="#F2B600"/>
<path d="M346.143 937.031C346.143 913.222 365.444 893.922 389.252 893.922H619.266C643.074 893.922 662.375 913.222 662.375 937.031C662.375 960.839 643.074 980.14 619.266 980.14H389.252C365.444 980.14 346.143 960.839 346.143 937.031Z" fill="#F2B600"/>
</svg>
