<svg width="18" height="18" viewBox="0 0 18 18" fill="none" xmlns="http://www.w3.org/2000/svg">
<rect width="18" height="18" rx="4" fill="#EBEBEB"/>
<g clip-path="url(#clip0_21361_12)">
<path d="M13.8856 7.42897C13.4498 6.99313 10.9549 4.49831 10.571 4.11442C10.4185 3.96186 10.1711 3.96186 10.0186 4.11442C9.86604 4.26698 9.86604 4.5143 10.0186 4.66684L10.2948 4.94307L8.21888 7.01901C7.70083 6.91645 7.16312 6.93127 6.65052 7.06368C6.04544 7.21997 5.49087 7.53731 5.04677 7.98143C4.89421 8.13397 4.89423 8.38129 5.04677 8.53385L6.98026 10.4673L4.1144 13.3332C3.96187 13.4857 3.96187 13.7331 4.1144 13.8856C4.26694 14.0381 4.51429 14.0381 4.66685 13.8856L7.53267 11.0198L9.46614 12.9532C9.54243 13.0295 9.64237 13.0677 9.74237 13.0677C9.84233 13.0677 9.94231 13.0295 10.0186 12.9532C10.4627 12.5091 10.78 11.9546 10.9363 11.3495C11.0687 10.8369 11.0836 10.2992 10.981 9.78114L13.057 7.70518L13.3332 7.98139C13.4857 8.13393 13.733 8.13395 13.8856 7.98139C14.0381 7.82885 14.0381 7.58153 13.8856 7.42897ZM10.2754 9.38188C10.1768 9.48047 10.1383 9.62417 10.1742 9.75887C10.3916 10.5729 10.2182 11.44 9.72239 12.1046L7.80897 10.1912L7.80892 10.1911C7.80892 10.1911 7.80888 10.1911 7.80884 10.1911L5.8954 8.27762C6.56007 7.7818 7.42712 7.6084 8.24114 7.82579C8.37585 7.86176 8.51954 7.82321 8.61815 7.72459L10.8473 5.49547L12.5045 7.15274L10.2754 9.38188Z" fill="#AAAAAA"/>
</g>
<defs>
<clipPath id="clip0_21361_12">
<rect width="10" height="10" fill="white" transform="translate(4 4)"/>
</clipPath>
</defs>
</svg>
