<svg width="18" height="18" viewBox="0 0 18 18" fill="none" xmlns="http://www.w3.org/2000/svg">
<mask id="mask0_21734_37284" style="mask-type:luminance" maskUnits="userSpaceOnUse" x="0" y="1" width="16" height="16">
<path d="M16 1H0V17H16V1Z" fill="white"/>
</mask>
<g mask="url(#mask0_21734_37284)">
<path d="M12.3624 1.9354C13.2028 1.9354 13.884 2.61665 13.884 3.45704V14.4519C13.884 15.2923 13.2028 15.9736 12.3624 15.9736H3.20678C2.99044 15.9736 2.81499 15.7983 2.81494 15.582V1.93751C2.81494 1.93751 2.81534 1.9368 2.81584 1.9363C2.81634 1.9358 2.81705 1.9354 2.81705 1.9354H12.3624Z" stroke="#747373" stroke-opacity="0.85" stroke-width="0.888889"/>
<path d="M5.75439 12.4126V11.1045C6.09329 11.3123 6.42766 11.4682 6.75753 11.5721C7.08738 11.6761 7.40369 11.728 7.70643 11.728C8.14021 11.728 8.45199 11.6015 8.64178 11.3485C8.83609 11.0909 8.93323 10.7181 8.93323 10.2301V4.17743H10.221V10.2301C10.221 10.8853 10.1194 11.4163 9.91603 11.8229C9.71723 12.2251 9.43479 12.5211 9.06879 12.7108C8.70732 12.8961 8.28483 12.9887 7.80132 12.9887C7.42175 12.9887 7.06252 12.9345 6.72363 12.8261C6.38473 12.7176 6.06166 12.5798 5.75439 12.4126Z" fill="#747373" fill-opacity="0.85"/>
<path d="M3.30003 3.74039H1.71738C1.49647 3.74039 1.31738 3.91947 1.31738 4.14039C1.31738 4.3613 1.49647 4.54039 1.71738 4.54039H3.30003C3.52094 4.54039 3.70003 4.3613 3.70003 4.14039C3.70003 3.91947 3.52094 3.74039 3.30003 3.74039Z" fill="#747373" fill-opacity="0.85"/>
<path d="M3.30003 12.6298H1.71738C1.49647 12.6298 1.31738 12.8089 1.31738 13.0298C1.31738 13.2507 1.49647 13.4298 1.71738 13.4298H3.30003C3.52094 13.4298 3.70003 13.2507 3.70003 13.0298C3.70003 12.8089 3.52094 12.6298 3.30003 12.6298Z" fill="#747373" fill-opacity="0.85"/>
</g>
</svg>
