<svg width="18" height="18" viewBox="0 0 18 18" fill="none" xmlns="http://www.w3.org/2000/svg">
<path d="M2.49609 1.93436C2.49609 1.75569 2.64094 1.61084 2.81962 1.61084H12.3636C13.3807 1.61084 14.2053 2.43539 14.2053 3.45253V14.4475C14.2053 15.4646 13.3807 16.2892 12.3636 16.2892H3.20784C2.81475 16.2892 2.49609 15.9705 2.49609 15.5774V1.93436Z" fill="#22996E"/>
<path d="M2.21875 2.21627C2.21875 1.88729 2.48544 1.62061 2.81441 1.62061H11.9109C12.6971 1.62061 13.3344 2.25793 13.3344 3.0441V14.2111C13.3344 14.9973 12.6971 15.6346 11.9109 15.6346H2.81441C2.48544 15.6346 2.21875 15.3679 2.21875 15.0389V2.21627Z" fill="#01DE8F"/>
<path d="M7.08107 15.6504L4.72656 12.8563L7.79296 12.7693L9.33384 11.182L8.38569 3.17529H10.0793L13.3412 8.17261V14.2398C13.3412 15.0188 12.7097 15.6504 11.9306 15.6504H7.08107Z" fill="#11B076"/>
<path d="M4.72266 12.8672V11.1645C5.12731 11.4063 5.5267 11.585 5.92084 11.7006C6.31498 11.8162 6.68547 11.874 7.03232 11.874C7.51054 11.874 7.85475 11.7347 8.06496 11.4562C8.28043 11.1777 8.38816 10.7625 8.38816 10.2107V3.17139H10.083V10.2107C10.083 11.0095 9.95946 11.6507 9.71247 12.1341C9.47073 12.6176 9.12914 12.9697 8.6877 13.1904C8.25152 13.4111 7.7444 13.5215 7.16632 13.5215C6.71438 13.5215 6.28345 13.4584 5.87354 13.3323C5.46889 13.2114 5.08526 13.0564 4.72266 12.8672Z" fill="white"/>
<rect x="1.32031" y="3.73779" width="2.38264" height="1.18575" rx="0.592875" fill="#AFFDE1"/>
<rect x="1.32031" y="12.6265" width="2.38264" height="1.18575" rx="0.592875" fill="#AFFDE1"/>
</svg>
