<svg width="16" height="16" viewBox="0 0 16 16" fill="none" xmlns="http://www.w3.org/2000/svg">
<path d="M8.06443 7.74386C8.99091 7.74386 9.79307 7.41157 10.4487 6.75596C11.1041 6.10046 11.4365 5.29841 11.4365 4.37182C11.4365 3.44555 11.1042 2.6434 10.4486 1.98769C9.79296 1.33229 8.9908 1 8.06443 1C7.13784 1 6.33579 1.33229 5.68028 1.98779C5.02478 2.64329 4.69238 3.44545 4.69238 4.37182C4.69238 5.29841 5.02478 6.10057 5.68028 6.75607C6.336 7.41146 7.13816 7.74386 8.06443 7.74386ZM6.26048 2.56788C6.76346 2.06491 7.35349 1.82042 8.06443 1.82042C8.77526 1.82042 9.36539 2.06491 9.86847 2.56788C10.3715 3.07097 10.616 3.6611 10.616 4.37182C10.616 5.08276 10.3715 5.67279 9.86847 6.17587C9.36539 6.67895 8.77526 6.92344 8.06443 6.92344C7.3537 6.92344 6.76367 6.67884 6.26048 6.17587C5.7574 5.67289 5.5128 5.08276 5.5128 4.37182C5.5128 3.6611 5.7574 3.07097 6.26048 2.56788Z" fill="#EF9309"/>
<path d="M13.9645 11.7653C13.9456 11.4925 13.9073 11.1949 13.851 10.8807C13.7942 10.5641 13.721 10.2648 13.6335 9.99129C13.5429 9.70856 13.4199 9.42935 13.2677 9.16179C13.11 8.88408 12.9246 8.64226 12.7165 8.44327C12.4989 8.23509 12.2325 8.06772 11.9245 7.94563C11.6175 7.82419 11.2773 7.76266 10.9134 7.76266C10.7705 7.76266 10.6323 7.8213 10.3653 7.99509C10.2011 8.10222 10.0089 8.22612 9.79444 8.36316C9.61105 8.48001 9.3626 8.58949 9.05573 8.68861C8.75634 8.78549 8.45235 8.83462 8.15221 8.83462C7.85228 8.83462 7.5483 8.78549 7.24869 8.68861C6.94214 8.5896 6.69359 8.48012 6.51052 8.36327C6.29807 8.22751 6.10581 8.10361 5.93908 7.99498C5.67237 7.8212 5.53415 7.76256 5.39124 7.76256C5.02722 7.76256 4.68714 7.82419 4.38027 7.94574C4.07244 8.06761 3.80594 8.23498 3.58815 8.44337C3.38008 8.64247 3.19466 8.88418 3.037 9.16179C2.88501 9.42935 2.76196 9.70845 2.67139 9.99139C2.58391 10.2649 2.51074 10.5641 2.45392 10.8807C2.39752 11.1945 2.35939 11.4922 2.34048 11.7656C2.3219 12.033 2.3125 12.3112 2.3125 12.5924C2.3125 13.3232 2.54482 13.9148 3.00293 14.3511C3.45538 14.7817 4.05396 15 4.78209 15H11.5232C12.2511 15 12.8497 14.7817 13.3022 14.3511C13.7605 13.9151 13.9928 13.3233 13.9928 12.5922C13.9927 12.3102 13.9832 12.0319 13.9645 11.7653ZM12.7366 13.7567C12.4376 14.0413 12.0407 14.1796 11.5231 14.1796H4.78209C4.26438 14.1796 3.86746 14.0413 3.5686 13.7568C3.27541 13.4777 3.13292 13.0967 3.13292 12.5924C3.13292 12.33 3.14157 12.071 3.15888 11.8224C3.17575 11.5784 3.21025 11.3104 3.26141 11.0256C3.31194 10.7444 3.37624 10.4805 3.45271 10.2415C3.52609 10.0124 3.62618 9.78557 3.75029 9.56703C3.86875 9.35875 4.00504 9.18005 4.15543 9.03607C4.2961 8.90138 4.47341 8.79115 4.68233 8.70848C4.87555 8.632 5.0927 8.59013 5.32843 8.58383C5.35717 8.59911 5.40833 8.62826 5.49121 8.68231C5.65987 8.79222 5.85427 8.91762 6.06917 9.05487C6.31142 9.20932 6.62352 9.34881 6.9964 9.46919C7.37761 9.59245 7.76641 9.65504 8.15232 9.65504C8.53823 9.65504 8.92713 9.59245 9.30813 9.4693C9.68133 9.34871 9.99332 9.20932 10.2359 9.05466C10.4558 8.91409 10.6448 8.79233 10.8134 8.68231C10.8963 8.62837 10.9475 8.59911 10.9762 8.58383C11.212 8.59013 11.4292 8.632 11.6225 8.70848C11.8313 8.79115 12.0086 8.90149 12.1493 9.03607C12.2997 9.17995 12.436 9.35864 12.5545 9.56714C12.6787 9.78557 12.7789 10.0125 12.8521 10.2414C12.9287 10.4807 12.9931 10.7445 13.0435 11.0255C13.0946 11.3108 13.1292 11.5789 13.1461 11.8225V11.8227C13.1635 12.0704 13.1723 12.3293 13.1724 12.5924C13.1723 13.0968 13.0298 13.4777 12.7366 13.7567Z" fill="#EF9309"/>
</svg>
