<svg width="16" height="16" viewBox="0 0 16 16" fill="none" xmlns="http://www.w3.org/2000/svg">
<path fill-rule="evenodd" clip-rule="evenodd" d="M2.36426 7.95608C2.36426 7.76678 2.51777 7.61328 2.70712 7.61328H3.05582C3.24517 7.61328 3.39867 7.76678 3.39867 7.95608C3.39867 8.14548 3.24517 8.29898 3.05582 8.29898H2.70712C2.51777 8.29898 2.36426 8.14548 2.36426 7.95608ZM3.63963 7.95608C3.63963 7.76678 3.79313 7.61328 3.98249 7.61328H4.67988C4.86923 7.61328 5.02274 7.76678 5.02274 7.95608C5.02274 8.14548 4.86923 8.29898 4.67988 8.29898H3.98249C3.79313 8.29898 3.63963 8.14548 3.63963 7.95608ZM5.26369 7.95608C5.26369 7.76678 5.4172 7.61328 5.60655 7.61328H6.30394C6.49328 7.61328 6.64678 7.76678 6.64678 7.95608C6.64678 8.14548 6.49328 8.29898 6.30394 8.29898H5.60655C5.4172 8.29898 5.26369 8.14548 5.26369 7.95608ZM6.88778 7.95608C6.88778 7.76678 7.04128 7.61328 7.23058 7.61328H7.92798C8.11738 7.61328 8.27088 7.76678 8.27088 7.95608C8.27088 8.14548 8.11738 8.29898 7.92798 8.29898H7.23058C7.04128 8.29898 6.88778 8.14548 6.88778 7.95608ZM8.51178 7.95608C8.51178 7.76678 8.66528 7.61328 8.85468 7.61328H9.55208C9.74138 7.61328 9.89488 7.76678 9.89488 7.95608C9.89488 8.14548 9.74138 8.29898 9.55208 8.29898H8.85468C8.66528 8.29898 8.51178 8.14548 8.51178 7.95608ZM10.1359 7.95608C10.1359 7.76678 10.2894 7.61328 10.4788 7.61328H11.1761C11.3655 7.61328 11.519 7.76678 11.519 7.95608C11.519 8.14548 11.3655 8.29898 11.1761 8.29898H10.4788C10.2894 8.29898 10.1359 8.14548 10.1359 7.95608ZM11.76 7.95608C11.76 7.76678 11.9135 7.61328 12.1028 7.61328H12.8002C12.9896 7.61328 13.1431 7.76678 13.1431 7.95608C13.1431 8.14548 12.9896 8.29898 12.8002 8.29898H12.1028C11.9135 8.29898 11.76 8.14548 11.76 7.95608ZM13.384 7.95608C13.384 7.76678 13.5375 7.61328 13.7269 7.61328H14.0756C14.2649 7.61328 14.4184 7.76678 14.4184 7.95608C14.4184 8.14548 14.2649 8.29898 14.0756 8.29898H13.7269C13.5375 8.29898 13.384 8.14548 13.384 7.95608Z" fill="#A172FF"/>
<path fill-rule="evenodd" clip-rule="evenodd" d="M10.2382 3.31291C10.3093 3.1246 10.4896 3 10.6909 3H14.484C14.7514 3 14.9681 3.21671 14.9681 3.48403C14.9681 3.75136 14.7514 3.96807 14.484 3.96807H11.0255L7.76439 12.5963C7.69329 12.7847 7.51299 12.9093 7.31159 12.9093H2.48404C2.21671 12.9093 2 12.6925 2 12.4252C2 12.1579 2.21671 11.9412 2.48404 11.9412H6.97709L10.2382 3.31291Z" fill="#A172FF"/>
</svg>
