<svg width="16" height="16" viewBox="0 0 16 16" fill="none" xmlns="http://www.w3.org/2000/svg">
<path d="M9.17703 6.20115C9.15817 6.10057 9.12045 5.99057 9.06388 5.87114C9.01359 5.74542 8.93502 5.63227 8.82816 5.53169C8.72758 5.43112 8.59872 5.34626 8.44157 5.27711C8.28442 5.20797 8.0927 5.17339 7.8664 5.17339C7.69668 5.17339 7.53953 5.20168 7.39495 5.25825C7.25666 5.30854 7.13723 5.37769 7.03665 5.46569C6.93608 5.5537 6.8575 5.65741 6.80093 5.77685C6.74436 5.88999 6.71607 6.00943 6.71607 6.13515C6.71607 6.34887 6.77893 6.53116 6.90465 6.68203C7.03665 6.83289 7.23466 6.93661 7.49867 6.99318L8.46043 7.19119C9.05131 7.31062 9.50075 7.5432 9.80877 7.88893C10.1168 8.23466 10.2708 8.64325 10.2708 9.1147C10.2708 9.37242 10.2174 9.62386 10.1105 9.86901C10.0099 10.1142 9.85906 10.331 9.6579 10.5196C9.45675 10.7082 9.20846 10.8591 8.91302 10.9722C8.62386 11.0853 8.28756 11.1419 7.90412 11.1419C7.47667 11.1419 7.1058 11.0822 6.7915 10.9628C6.48349 10.8371 6.22262 10.6768 6.0089 10.4819C5.80146 10.2807 5.64117 10.0576 5.52802 9.81244C5.41487 9.56729 5.34573 9.32528 5.32058 9.08641L6.37663 8.78468C6.39549 8.96069 6.43949 9.13041 6.50863 9.29385C6.57778 9.451 6.67521 9.59243 6.80093 9.71815C6.93294 9.83758 7.09009 9.93502 7.27238 10.0104C7.45467 10.0859 7.66525 10.1236 7.90412 10.1236C8.30642 10.1236 8.60815 10.0356 8.8093 9.85958C9.01673 9.68358 9.12045 9.46357 9.12045 9.19956C9.12045 8.97955 9.04188 8.79097 8.88473 8.63382C8.73387 8.47039 8.51386 8.35724 8.2247 8.29438L7.28181 8.09637C6.77264 7.98951 6.36091 7.77579 6.04661 7.4552C5.7386 7.13462 5.5846 6.72289 5.5846 6.22001C5.5846 5.93714 5.64431 5.67313 5.76375 5.42798C5.88318 5.17654 6.04661 4.95967 6.25405 4.77738C6.46149 4.5888 6.70035 4.44108 6.97065 4.33422C7.24723 4.22736 7.54268 4.17392 7.85697 4.17392C8.25299 4.17392 8.58929 4.22736 8.86587 4.33422C9.14245 4.44108 9.37189 4.57937 9.55419 4.74909C9.74276 4.91253 9.88734 5.09482 9.98792 5.29597C10.0885 5.49712 10.1576 5.69199 10.1954 5.88057L9.17703 6.20115Z" fill="#EF9309"/>
<rect x="1.5" y="1.50049" width="13" height="13" rx="3.5" stroke="#EF9309"/>
</svg>
