<svg width="16" height="16" viewBox="0 0 16 16" fill="none" xmlns="http://www.w3.org/2000/svg">
<path fill-rule="evenodd" clip-rule="evenodd" d="M2.1098 7.85037C2.08603 7.87413 2.07638 7.90139 2.07638 7.92459V10.2926C2.07638 10.7058 2.41666 11.0461 2.82983 11.0461H3.76267C3.82424 11.0461 3.87035 11 3.87035 10.9384V7.92459C3.87035 7.86634 3.82036 7.81696 3.76267 7.81696H2.18403C2.16081 7.81696 2.13357 7.8266 2.1098 7.85037ZM1 7.92459C1 7.27571 1.5352 6.74058 2.18403 6.74058H3.76267C4.42257 6.74058 4.94672 7.27959 4.94672 7.92459V10.9384C4.94672 11.5945 4.4187 12.1225 3.76267 12.1225H2.82983C1.82218 12.1225 1 11.3002 1 10.2926V7.92459Z" fill="#817E7E"/>
<path fill-rule="evenodd" clip-rule="evenodd" d="M7.99633 2.07638C5.51654 2.07638 3.51143 4.08147 3.51143 6.56127V7.28601C3.51143 7.58327 3.27048 7.8242 2.97325 7.8242C2.67602 7.8242 2.43506 7.58327 2.43506 7.28601V6.56127C2.43506 3.48699 4.92203 1 7.99633 1C11.0706 1 13.5576 3.48699 13.5576 6.56127V7.27887C13.5576 7.57608 13.3166 7.81705 13.0194 7.81705C12.7222 7.81705 12.4812 7.57608 12.4812 7.27887V6.56127C12.4812 4.08147 10.4761 2.07638 7.99633 2.07638Z" fill="#817E7E"/>
<path fill-rule="evenodd" clip-rule="evenodd" d="M13.0542 11.0567C13.3456 11.1152 13.5344 11.3989 13.4759 11.6903C13.0963 13.5801 11.4299 15.0001 9.43201 15.0001H8.71446C8.41721 15.0001 8.17627 14.7591 8.17627 14.4619C8.17627 14.1646 8.41721 13.9237 8.71446 13.9237H9.43201C10.9073 13.9237 12.14 12.8751 12.4205 11.4784C12.4791 11.187 12.7628 10.9982 13.0542 11.0567Z" fill="#817E7E"/>
<path fill-rule="evenodd" clip-rule="evenodd" d="M12.1557 7.85037C12.132 7.87413 12.1223 7.90139 12.1223 7.92459V10.9384C12.1223 10.9967 12.1723 11.0461 12.23 11.0461H13.1269C13.5616 11.0461 13.9162 10.6914 13.9162 10.2567V7.92459C13.9162 7.86634 13.8663 7.81696 13.8086 7.81696H12.23C12.2067 7.81696 12.1795 7.8266 12.1557 7.85037ZM11.0459 7.92459C11.0459 7.27571 11.5811 6.74058 12.23 6.74058H13.8086C14.4685 6.74058 14.9926 7.27959 14.9926 7.92459V10.2567C14.9926 11.2859 14.1561 12.1225 13.1269 12.1225H12.23C11.5701 12.1225 11.0459 11.5834 11.0459 10.9384V7.92459Z" fill="#817E7E"/>
</svg>
