<svg width="1025" height="1025" viewBox="0 0 1025 1025" fill="none" xmlns="http://www.w3.org/2000/svg">
<path d="M512.259 20.8408C379.954 20.8408 272.694 128.096 272.694 260.405V382.202C272.694 466.161 315.896 540.008 381.193 582.763C379.529 601.008 374.048 613.927 366.703 623.822L366.321 624.337C348.719 647.611 317.326 659.264 274.793 673.992L272.982 674.618C237.327 686.959 195.258 701.519 162.696 731.011C128.123 762.325 106.259 808.273 106.259 878.763V953.303H150.259V878.763C150.259 818.502 168.381 785.228 192.234 763.623C217.545 740.698 251.464 728.632 289.19 715.57C290.23 715.21 291.275 714.848 292.324 714.485L292.422 714.452C330.811 701.181 375.572 685.706 402.038 650.047L415.277 632.209L413.486 630.907C421.466 613.955 425.709 594.108 425.719 570.81L425.725 558.095L414.71 551.743C356.078 517.926 316.694 454.649 316.694 382.202V260.405C316.694 152.397 404.254 64.8408 512.259 64.8408C620.267 64.8408 707.824 152.401 707.824 260.405V382.202C707.824 454.652 668.44 517.928 609.808 551.743L598.793 558.096L598.799 570.811C598.814 603.505 607.164 629.402 622.481 650.044C648.946 685.705 693.708 701.18 732.097 714.452C733.18 714.826 734.258 715.199 735.33 715.57C773.055 728.632 806.973 740.698 832.284 763.624C856.137 785.228 874.259 818.502 874.259 878.763V953.303H918.259V878.763C918.259 808.273 896.395 762.326 861.822 731.012C829.261 701.52 787.192 686.959 751.537 674.618L749.727 673.992C706.882 659.156 675.342 647.44 657.815 623.824C650.47 613.924 644.989 601.004 643.325 582.764C708.622 540.009 751.824 466.163 751.824 382.202V260.405C751.824 128.101 644.568 20.8408 512.259 20.8408Z" fill="#616161"/>
</svg>
