<svg width="20" height="20" viewBox="0 0 20 20" fill="none" xmlns="http://www.w3.org/2000/svg">
<path d="M18.4 0H1.6C0.716346 0 0 0.716346 0 1.6V18.4C0 19.2837 0.716346 20 1.6 20H18.4C19.2837 20 20 19.2837 20 18.4V1.6C20 0.716346 19.2837 0 18.4 0Z" fill="url(#paint0_linear_33107_702)"/>
<path d="M13.336 8.208C13.144 7.248 12.352 6 10.288 6C8.68 6 7.324 7.152 7.324 8.664C7.324 9.948 8.2 10.824 9.556 11.1L10.744 11.34C11.404 11.472 11.776 11.856 11.776 12.348C11.776 12.948 11.284 13.392 10.396 13.392C9.196 13.392 8.608 12.636 8.536 11.796L7 12.204C7.132 13.416 8.128 14.868 10.384 14.868C12.364 14.868 13.456 13.548 13.456 12.24C13.456 11.04 12.628 10.032 11.08 9.732L9.892 9.504C9.268 9.384 8.968 9.012 8.968 8.544C8.968 7.98 9.496 7.464 10.3 7.464C11.38 7.464 11.764 8.196 11.848 8.664L13.336 8.208Z" fill="white"/>
<defs>
<linearGradient id="paint0_linear_33107_702" x1="10.2564" y1="3.72953e-07" x2="10.4206" y2="21.5001" gradientUnits="userSpaceOnUse">
<stop stop-color="#FB837F"/>
<stop offset="1" stop-color="#BB2F2F"/>
</linearGradient>
</defs>
</svg>
