<svg width="11" height="11" viewBox="0 0 11 11" fill="none" xmlns="http://www.w3.org/2000/svg">
<path d="M10.7034 4.98894C10.8267 4.89267 10.9182 4.75836 10.965 4.60486C11.0119 4.45135 11.0116 4.28634 10.9644 4.13297C10.9172 3.9796 10.8254 3.84555 10.7018 3.74962C10.5782 3.6537 10.4291 3.6007 10.2753 3.59807L7.28867 3.47985C7.27399 3.47878 7.25991 3.4733 7.24813 3.46404C7.23636 3.45479 7.22739 3.44216 7.2223 3.42769L6.19025 0.506853C6.13839 0.358251 6.04421 0.229936 5.92046 0.139278C5.7967 0.0486202 5.64934 0 5.49834 0C5.34734 0 5.19998 0.0486202 5.07623 0.139278C4.95247 0.229936 4.85829 0.358251 4.80643 0.506853L3.7777 3.43812C3.77261 3.45259 3.76364 3.46522 3.75187 3.47447C3.74009 3.48373 3.72601 3.48922 3.71133 3.49028L0.724677 3.6085C0.570899 3.61113 0.421764 3.66413 0.298181 3.76005C0.174598 3.85598 0.0827658 3.99003 0.0355601 4.1434C-0.0116456 4.29678 -0.0118574 4.46178 0.0349544 4.61529C0.0817662 4.7688 0.173254 4.9031 0.29659 4.99938L2.63945 6.92921C2.65118 6.93888 2.65994 6.95194 2.66466 6.96677C2.66938 6.9816 2.66984 6.99756 2.666 7.01267L1.8596 10.0065C1.81782 10.159 1.82187 10.3212 1.8712 10.4712C1.92053 10.6211 2.01275 10.7515 2.13532 10.8446C2.25789 10.9377 2.40485 10.989 2.55621 10.9915C2.70757 10.9939 2.85598 10.9475 2.98126 10.8584L5.45686 9.11984C5.46905 9.11102 5.48352 9.10629 5.49834 9.10629C5.51316 9.10629 5.52763 9.11102 5.53982 9.11984L8.01542 10.8584C8.13901 10.9505 8.28689 11 8.43853 11C8.59018 11 8.73806 10.9505 8.86164 10.8584C8.98424 10.7662 9.07655 10.6365 9.12588 10.487C9.1752 10.3376 9.17911 10.1758 9.13708 10.0239L8.32404 7.01962C8.31974 7.00454 8.31997 6.98843 8.32473 6.9735C8.32948 6.95856 8.33851 6.94553 8.35059 6.93617L10.7034 4.98894Z" fill="url(#paint0_linear_31023_13)"/>
<defs>
<linearGradient id="paint0_linear_31023_13" x1="0.167161" y1="-0.0634146" x2="11.8523" y2="10.345" gradientUnits="userSpaceOnUse">
<stop stop-color="#FFD809"/>
<stop offset="1" stop-color="#FF8A46"/>
</linearGradient>
</defs>
</svg>
