<svg width="1025" height="1025" viewBox="0 0 1025 1025" fill="none" xmlns="http://www.w3.org/2000/svg">
<path fill-rule="evenodd" clip-rule="evenodd" d="M765.592 88.1406H88.2588L88.2588 832.141H765.592V88.1406ZM88.2588 44.1406C63.9583 44.1406 44.2588 63.8401 44.2588 88.1406V832.141C44.2588 856.441 63.9583 876.141 88.2588 876.141H765.592C789.893 876.141 809.592 856.441 809.592 832.141V88.1406C809.592 63.8401 789.893 44.1406 765.592 44.1406H88.2588Z" fill="#747373"/>
<path d="M214.925 876.141V936.141C214.925 960.441 234.625 980.141 258.925 980.141H936.259C960.559 980.141 980.259 960.441 980.259 936.141V192.141C980.259 167.84 960.559 148.141 936.259 148.141H809.592V192.141H936.259V936.141H258.925V876.141H214.925Z" fill="#747373"/>
<path d="M148.259 215.141C148.259 204.647 156.765 196.141 167.259 196.141H355.259C365.752 196.141 374.259 204.647 374.259 215.141C374.259 225.634 365.752 234.141 355.259 234.141H167.259C156.765 234.141 148.259 225.634 148.259 215.141Z" fill="#747373"/>
<path d="M148.259 381.141C148.259 370.647 156.765 362.141 167.259 362.141H633.259C643.752 362.141 652.259 370.647 652.259 381.141C652.259 391.634 643.752 400.141 633.259 400.141H167.259C156.765 400.141 148.259 391.634 148.259 381.141Z" fill="#747373"/>
<path d="M148.259 657.141C148.259 646.647 156.765 638.141 167.259 638.141H633.259C643.752 638.141 652.259 646.647 652.259 657.141C652.259 667.634 643.752 676.141 633.259 676.141H167.259C156.765 676.141 148.259 667.634 148.259 657.141Z" fill="#747373"/>
<path d="M148.259 519.141C148.259 508.647 156.765 500.141 167.259 500.141H633.259C643.752 500.141 652.259 508.647 652.259 519.141C652.259 529.634 643.752 538.141 633.259 538.141H167.259C156.765 538.141 148.259 529.634 148.259 519.141Z" fill="#747373"/>
</svg>
