<svg width="20" height="20" viewBox="0 0 20 20" fill="none" xmlns="http://www.w3.org/2000/svg">
<rect x="0.25" y="0.25" width="19.5" height="19.5" rx="3.75" fill="white"/>
<rect x="0.25" y="0.25" width="19.5" height="19.5" rx="3.75" stroke="#F1F1F1" stroke-width="0.5"/>
<path d="M10.109 11.0677C9.49617 11.0677 9 11.5644 9 12.177C9 12.7896 9.4966 13.2863 10.1094 13.2863C10.7222 13.2863 11.2185 12.7896 11.2185 12.177C11.2185 11.5644 10.7217 11.0677 10.109 11.0677Z" fill="#817E7E"/>
<path d="M10.109 7C9.49617 7 9 7.49664 9 8.10926C9 8.72188 9.4966 9.21852 10.1094 9.21852C10.7222 9.21852 11.2185 8.72188 11.2185 8.10926C11.2185 7.49664 10.7217 7 10.109 7Z" fill="#817E7E"/>
</svg>
