<svg width="24" height="24" viewBox="0 0 24 24" fill="none" xmlns="http://www.w3.org/2000/svg">
<rect width="24" height="24" rx="4" fill="white" fill-opacity="0.12"/>
<rect x="0.25" y="0.25" width="23.5" height="23.5" rx="3.75" stroke="white" stroke-opacity="0.12" stroke-width="0.5" stroke-linecap="round"/>
<path d="M17.9237 11.7863C17.8165 11.6521 15.2622 8.5 11.9999 8.5C8.73762 8.5 6.18323 11.6521 6.07615 11.7863C5.97462 11.9136 5.97462 12.0863 6.07615 12.2136C6.18323 12.3478 8.73762 15.5 11.9999 15.5C15.2622 15.5 17.8165 12.3478 17.9237 12.2137C18.0254 12.0864 18.0254 11.9136 17.9237 11.7863ZM11.9999 14.7758C9.59689 14.7758 7.51563 12.6837 6.89953 11.9997C7.51484 11.3152 9.59176 9.22415 11.9999 9.22415C14.4029 9.22415 16.484 11.3159 17.1003 12.0002C16.4851 12.6848 14.4081 14.7758 11.9999 14.7758Z" fill="#DADADA"/>
<path d="M11.9996 9.44141C10.6908 9.44141 9.62598 10.5484 9.62598 11.9091C9.62598 13.2697 10.6908 14.3767 11.9996 14.3767C13.3085 14.3767 14.3733 13.2697 14.3733 11.9091C14.3733 10.5484 13.3085 9.44141 11.9996 9.44141ZM11.9996 13.5541C11.127 13.5541 10.4172 12.8162 10.4172 11.9091C10.4172 11.002 11.1271 10.2639 11.9996 10.2639C12.8722 10.2639 13.582 11.002 13.582 11.9091C13.582 12.8162 12.8722 13.5541 11.9996 13.5541Z" fill="#DADADA"/>
</svg>
