<svg width="22" height="22" viewBox="0 0 22 22" fill="none" xmlns="http://www.w3.org/2000/svg">
<path d="M5.46216 11.0693C6.99726 9.53873 8.85068 8.77344 11.0224 8.77344C13.1941 8.77344 15.0453 9.53873 16.5759 11.0693" stroke="#666666" stroke-width="2.61989" stroke-linecap="round" stroke-linejoin="round"/>
<path d="M1.83398 7.45185C4.36691 4.92796 7.42357 3.66602 11.004 3.66602C14.5889 3.66602 17.6433 4.92796 20.1672 7.45185" stroke="#666666" stroke-width="2.61989" stroke-linecap="round" stroke-linejoin="round"/>
<g clip-path="url(#clip0_117075_9208)">
<path d="M11.001 20.8328C13.2101 20.8328 15.001 19.0426 15.001 16.8344C15.001 14.6261 13.2101 12.8359 11.001 12.8359C8.79183 12.8359 7.00098 14.6261 7.00098 16.8344C7.00098 19.0426 8.79183 20.8328 11.001 20.8328Z" fill="#666666"/>
<path d="M13.1531 15.449H12.2407V19.0512C12.0919 19.0512 11.9453 19.0228 11.8009 18.9659C11.6565 18.9135 11.5843 18.8522 11.5843 18.7822V18.0014C11.278 18.1939 10.9454 18.2901 10.5866 18.2901C10.2277 18.2901 9.93453 18.1982 9.70697 18.0145C9.4838 17.8264 9.3722 17.5837 9.3722 17.2862C9.3722 17.0587 9.45097 16.8553 9.6085 16.676C9.38533 16.5929 9.2081 16.4704 9.07681 16.3085C8.94553 16.1423 8.87988 15.9454 8.87988 15.718C8.87988 15.4905 8.97178 15.2827 9.15558 15.0946C9.34375 14.9066 9.59975 14.8125 9.9236 14.8125C10.1599 14.8125 10.3415 14.865 10.4684 14.97C10.5997 15.075 10.6653 15.204 10.6653 15.3571C10.6653 15.6677 10.464 15.8864 10.0614 16.0133C9.9958 15.9608 9.94764 15.8864 9.91701 15.7902C10.0964 15.6721 10.1862 15.5474 10.1862 15.4162C10.1862 15.3418 10.1643 15.2827 10.1205 15.239C10.0767 15.1909 10.0067 15.1668 9.91045 15.1668C9.81417 15.1668 9.7201 15.2193 9.6282 15.3243C9.5363 15.4293 9.49035 15.5671 9.49035 15.7377C9.49035 15.9039 9.5363 16.0439 9.6282 16.1576C9.72445 16.267 9.84481 16.3435 9.98921 16.3873C10.1818 16.291 10.3984 16.2189 10.6391 16.1707C10.8054 16.3282 10.9104 16.4922 10.9542 16.6628C10.6828 16.7153 10.4531 16.7984 10.2649 16.9122C10.0811 17.0216 9.98921 17.1484 9.98921 17.2928C9.98921 17.4327 10.0374 17.5465 10.1336 17.634C10.2343 17.7215 10.3765 17.7652 10.5603 17.7652C10.7485 17.7652 10.9345 17.7127 11.1183 17.6077C11.302 17.5027 11.4574 17.3649 11.5843 17.1943V15.449H11.1314C10.9738 15.2652 10.8951 15.0706 10.8951 14.865H12.9496C13.0853 15.04 13.1531 15.2346 13.1531 15.449Z" fill="white"/>
</g>
<defs>
<clipPath id="clip0_117075_9208">
<rect width="8" height="8" fill="white" transform="translate(7 12.834)"/>
</clipPath>
</defs>
</svg>
