<svg width="22" height="22" viewBox="0 0 22 22" fill="none" xmlns="http://www.w3.org/2000/svg">
<path d="M5.46191 11.0696C6.99702 9.53897 8.85044 8.77368 11.0222 8.77368C13.1939 8.77368 15.045 9.53897 16.5756 11.0696" stroke="#C4C4C4" stroke-width="2.61989" stroke-linecap="round" stroke-linejoin="round"/>
<path d="M1.83398 7.45185C4.36691 4.92796 7.42357 3.66602 11.004 3.66602C14.5889 3.66602 17.6433 4.92796 20.1672 7.45185" stroke="#C4C4C4" stroke-width="2.61989" stroke-linecap="round" stroke-linejoin="round"/>
<g clip-path="url(#clip0_17783_4811)">
<path d="M11.001 20.8318C13.2101 20.8318 15.001 19.0417 15.001 16.8334C15.001 14.6251 13.2101 12.835 11.001 12.835C8.79183 12.835 7.00098 14.6251 7.00098 16.8334C7.00098 19.0417 8.79183 20.8318 11.001 20.8318Z" fill="#C4C4C4"/>
<path d="M13.1531 15.447H12.2407V19.0493C12.0919 19.0493 11.9453 19.0209 11.8009 18.964C11.6565 18.9115 11.5843 18.8503 11.5843 18.7803V17.9995C11.278 18.1919 10.9454 18.2881 10.5866 18.2881C10.2277 18.2881 9.93453 18.1963 9.70697 18.0126C9.4838 17.8245 9.3722 17.5817 9.3722 17.2842C9.3722 17.0568 9.45097 16.8534 9.6085 16.674C9.38533 16.5909 9.2081 16.4684 9.07681 16.3066C8.94553 16.1403 8.87988 15.9435 8.87988 15.716C8.87988 15.4886 8.97178 15.2808 9.15558 15.0927C9.34375 14.9046 9.59975 14.8105 9.9236 14.8105C10.1599 14.8105 10.3415 14.863 10.4684 14.968C10.5997 15.073 10.6653 15.202 10.6653 15.3552C10.6653 15.6657 10.464 15.8844 10.0614 16.0113C9.9958 15.9588 9.94764 15.8844 9.91701 15.7882C10.0964 15.6701 10.1862 15.5454 10.1862 15.4142C10.1862 15.3398 10.1643 15.2808 10.1205 15.237C10.0767 15.1889 10.0067 15.1649 9.91045 15.1649C9.81417 15.1649 9.7201 15.2174 9.6282 15.3223C9.5363 15.4273 9.49035 15.5651 9.49035 15.7357C9.49035 15.9019 9.5363 16.0419 9.6282 16.1557C9.72445 16.265 9.84481 16.3416 9.98921 16.3853C10.1818 16.2891 10.3984 16.2169 10.6391 16.1688C10.8054 16.3263 10.9104 16.4903 10.9542 16.6609C10.6828 16.7134 10.4531 16.7965 10.2649 16.9102C10.0811 17.0196 9.98921 17.1465 9.98921 17.2908C9.98921 17.4308 10.0374 17.5445 10.1336 17.632C10.2343 17.7195 10.3765 17.7632 10.5603 17.7632C10.7485 17.7632 10.9345 17.7107 11.1183 17.6058C11.302 17.5008 11.4574 17.363 11.5843 17.1924V15.447H11.1314C10.9738 15.2633 10.8951 15.0686 10.8951 14.863H12.9496C13.0853 15.038 13.1531 15.2327 13.1531 15.447Z" fill="white"/>
</g>
<defs>
<clipPath id="clip0_17783_4811">
<rect width="8" height="8" fill="white" transform="translate(7 12.834)"/>
</clipPath>
</defs>
</svg>
